<svg xmlns="http://www.w3.org/2000/svg" xmlns:xlink="http://www.w3.org/1999/xlink" width="512" zoomAndPan="magnify" viewBox="0 0 384 383.999986" height="512" preserveAspectRatio="xMidYMid meet" version="1.0"><defs><g/><clipPath id="fdc4d9d920"><path d="M 18 0 L 366 0 C 370.773438 0 375.351562 1.894531 378.726562 5.273438 C 382.105469 8.648438 384 13.226562 384 18 L 384 366 C 384 375.941406 375.941406 384 366 384 L 18 384 C 13.226562 384 8.648438 382.105469 5.273438 378.726562 C 1.894531 375.351562 0 370.773438 0 366 L 0 18 C 0 13.226562 1.894531 8.648438 5.273438 5.273438 C 8.648438 1.894531 13.226562 0 18 0 " clip-rule="nonzero"/></clipPath></defs><g clip-path="url(#fdc4d9d920)"><path fill="#563d7c" d="M 0 0 L 383.398438 0 L 383.398438 383.398438 L 0 383.398438 Z M 0 0 " fill-opacity="1" fill-rule="nonzero"/></g><g fill="#ffffff" fill-opacity="1"><g transform="translate(116.921775, 290.502602)"><g><path d="M 117.875 0 L 67.6875 0 L 67.6875 -96.84375 C 67.6875 -108.613281 67.941406 -119.378906 68.453125 -129.140625 C 65.359375 -125.378906 61.519531 -121.457031 56.9375 -117.375 L 36.15625 -100.234375 L 10.515625 -131.765625 L 73.328125 -182.9375 L 117.875 -182.9375 Z M 117.875 0 "/></g></g></g></svg>