<svg xmlns="http://www.w3.org/2000/svg" xmlns:xlink="http://www.w3.org/1999/xlink" width="512" zoomAndPan="magnify" viewBox="0 0 384 383.999986" height="512" preserveAspectRatio="xMidYMid meet" version="1.0"><defs><g/><clipPath id="74ee4e6bf2"><path d="M 18 0 L 366 0 C 370.773438 0 375.351562 1.894531 378.726562 5.273438 C 382.105469 8.648438 384 13.226562 384 18 L 384 366 C 384 375.941406 375.941406 384 366 384 L 18 384 C 13.226562 384 8.648438 382.105469 5.273438 378.726562 C 1.894531 375.351562 0 370.773438 0 366 L 0 18 C 0 8.058594 8.058594 0 18 0 " clip-rule="nonzero"/></clipPath><clipPath id="003a27ae30"><path d="M 93.023438 37.28125 L 291.023438 37.28125 L 291.023438 235.28125 L 93.023438 235.28125 Z M 93.023438 37.28125 " clip-rule="nonzero"/></clipPath></defs><g clip-path="url(#74ee4e6bf2)"><path fill="#563d7c" d="M 0 0 L 383.398438 0 L 383.398438 383.398438 L 0 383.398438 Z M 0 0 " fill-opacity="1" fill-rule="nonzero"/></g><path fill="#ffffff" d="M 218.335938 145.792969 C 213.078125 145.792969 208.820312 141.535156 208.820312 136.28125 C 208.820312 131.023438 213.078125 126.765625 218.335938 126.765625 C 223.589844 126.765625 227.847656 131.023438 227.847656 136.28125 C 227.847656 141.535156 223.589844 145.792969 218.335938 145.792969 Z M 165.710938 145.792969 C 160.457031 145.792969 156.199219 141.535156 156.199219 136.28125 C 156.199219 131.023438 160.457031 126.765625 165.710938 126.765625 C 170.96875 126.765625 175.226562 131.023438 175.226562 136.28125 C 175.226562 141.535156 170.96875 145.792969 165.710938 145.792969 Z M 192.023438 71.714844 C 156.421875 71.714844 127.460938 100.679688 127.460938 136.28125 C 127.460938 171.878906 156.421875 200.84375 192.023438 200.84375 C 227.621094 200.84375 256.585938 171.878906 256.585938 136.28125 C 256.585938 100.679688 227.621094 71.714844 192.023438 71.714844 " fill-opacity="1" fill-rule="nonzero"/><g clip-path="url(#003a27ae30)"><path fill="#ffffff" d="M 192.023438 205.5 C 153.855469 205.5 122.800781 174.449219 122.800781 136.28125 C 122.800781 98.109375 153.855469 67.058594 192.023438 67.058594 C 230.191406 67.058594 261.246094 98.109375 261.246094 136.28125 C 261.246094 174.449219 230.191406 205.5 192.023438 205.5 Z M 278.796875 37.28125 L 105.25 37.28125 C 98.527344 37.28125 93.023438 42.78125 93.023438 49.507812 L 93.023438 223.054688 C 93.023438 229.777344 98.527344 235.28125 105.25 235.28125 L 278.796875 235.28125 C 285.519531 235.28125 291.023438 229.777344 291.023438 223.054688 L 291.023438 49.507812 C 291.023438 42.78125 285.519531 37.28125 278.796875 37.28125 " fill-opacity="1" fill-rule="nonzero"/></g><g fill="#ffffff" fill-opacity="1"><g transform="translate(62.958986, 328.463734)"><g><path d="M 52.15625 0 L 2.828125 0 L 2.828125 -12.078125 L 19.421875 -28.859375 C 24.171875 -33.816406 27.269531 -37.203125 28.71875 -39.015625 C 30.175781 -40.828125 31.191406 -42.382812 31.765625 -43.6875 C 32.335938 -44.988281 32.625 -46.351562 32.625 -47.78125 C 32.625 -49.539062 32.050781 -50.929688 30.90625 -51.953125 C 29.757812 -52.984375 28.148438 -53.5 26.078125 -53.5 C 23.941406 -53.5 21.78125 -52.882812 19.59375 -51.65625 C 17.40625 -50.4375 14.929688 -48.632812 12.171875 -46.25 L 2.09375 -58.046875 C 5.59375 -61.179688 8.535156 -63.421875 10.921875 -64.765625 C 13.304688 -66.117188 15.898438 -67.148438 18.703125 -67.859375 C 21.503906 -68.566406 24.660156 -68.921875 28.171875 -68.921875 C 32.566406 -68.921875 36.488281 -68.144531 39.9375 -66.59375 C 43.394531 -65.050781 46.078125 -62.847656 47.984375 -59.984375 C 49.890625 -57.117188 50.84375 -53.90625 50.84375 -50.34375 C 50.84375 -47.675781 50.507812 -45.207031 49.84375 -42.9375 C 49.175781 -40.675781 48.144531 -38.453125 46.75 -36.265625 C 45.363281 -34.085938 43.515625 -31.789062 41.203125 -29.375 C 38.890625 -26.957031 33.972656 -22.367188 26.453125 -15.609375 L 26.453125 -15.15625 L 52.15625 -15.15625 Z M 52.15625 0 "/></g></g></g><g fill="#ffffff" fill-opacity="1"><g transform="translate(118.72833, 328.463734)"><g><path d="M 49.875 -53.21875 C 49.875 -49 48.585938 -45.378906 46.015625 -42.359375 C 43.441406 -39.335938 39.722656 -37.144531 34.859375 -35.78125 L 34.859375 -35.515625 C 46.203125 -34.085938 51.875 -28.722656 51.875 -19.421875 C 51.875 -13.109375 49.367188 -8.140625 44.359375 -4.515625 C 39.359375 -0.890625 32.410156 0.921875 23.515625 0.921875 C 19.859375 0.921875 16.472656 0.65625 13.359375 0.125 C 10.242188 -0.394531 6.875 -1.351562 3.25 -2.75 L 3.25 -17.984375 C 6.226562 -16.460938 9.257812 -15.335938 12.34375 -14.609375 C 15.425781 -13.890625 18.269531 -13.53125 20.875 -13.53125 C 24.894531 -13.53125 27.828125 -14.09375 29.671875 -15.21875 C 31.515625 -16.351562 32.4375 -18.128906 32.4375 -20.546875 C 32.4375 -22.398438 31.957031 -23.832031 31 -24.84375 C 30.039062 -25.851562 28.488281 -26.613281 26.34375 -27.125 C 24.207031 -27.632812 21.421875 -27.890625 17.984375 -27.890625 L 13.796875 -27.890625 L 13.796875 -41.6875 L 18.078125 -41.6875 C 27.398438 -41.6875 32.0625 -44.070312 32.0625 -48.84375 C 32.0625 -50.644531 31.375 -51.976562 30 -52.84375 C 28.625 -53.707031 26.773438 -54.140625 24.453125 -54.140625 C 20.109375 -54.140625 15.613281 -52.6875 10.96875 -49.78125 L 3.34375 -62.046875 C 6.9375 -64.523438 10.613281 -66.289062 14.375 -67.34375 C 18.144531 -68.394531 22.460938 -68.921875 27.328125 -68.921875 C 34.359375 -68.921875 39.875 -67.523438 43.875 -64.734375 C 47.875 -61.953125 49.875 -58.113281 49.875 -53.21875 Z M 49.875 -53.21875 "/></g></g></g><g fill="#ffffff" fill-opacity="1"><g transform="translate(174.497673, 328.463734)"><g><path d="M 52.421875 -33.875 C 52.421875 -21.851562 50.40625 -13.046875 46.375 -7.453125 C 42.351562 -1.867188 36.191406 0.921875 27.890625 0.921875 C 19.765625 0.921875 13.640625 -1.992188 9.515625 -7.828125 C 5.398438 -13.671875 3.34375 -22.351562 3.34375 -33.875 C 3.34375 -45.96875 5.359375 -54.832031 9.390625 -60.46875 C 13.421875 -66.101562 19.585938 -68.921875 27.890625 -68.921875 C 35.972656 -68.921875 42.082031 -65.984375 46.21875 -60.109375 C 50.351562 -54.242188 52.421875 -45.5 52.421875 -33.875 Z M 21.609375 -33.875 C 21.609375 -26.195312 22.085938 -20.914062 23.046875 -18.03125 C 24.015625 -15.15625 25.628906 -13.71875 27.890625 -13.71875 C 30.179688 -13.71875 31.796875 -15.203125 32.734375 -18.171875 C 33.679688 -21.148438 34.15625 -26.382812 34.15625 -33.875 C 34.15625 -41.40625 33.675781 -46.679688 32.71875 -49.703125 C 31.757812 -52.722656 30.148438 -54.234375 27.890625 -54.234375 C 25.628906 -54.234375 24.015625 -52.773438 23.046875 -49.859375 C 22.085938 -46.953125 21.609375 -41.625 21.609375 -33.875 Z M 21.609375 -33.875 "/></g></g></g><g fill="#ffffff" fill-opacity="1"><g transform="translate(230.267017, 328.463734)"><g/></g></g><g fill="#ffffff" fill-opacity="1"><g transform="translate(254.991426, 328.463734)"><g><path d="M 45.5 -67.953125 L 66.046875 -67.953125 L 43.78125 0 L 22.171875 0 L 0 -67.953125 L 20.640625 -67.953125 L 29.890625 -33.515625 C 31.804688 -25.859375 32.859375 -20.523438 33.046875 -17.515625 C 33.265625 -19.691406 33.695312 -22.40625 34.34375 -25.65625 C 35 -28.90625 35.570312 -31.460938 36.0625 -33.328125 Z M 45.5 -67.953125 "/></g></g></g></svg>