<svg xmlns="http://www.w3.org/2000/svg" xmlns:xlink="http://www.w3.org/1999/xlink" width="512" zoomAndPan="magnify" viewBox="0 0 384 383.999986" height="512" preserveAspectRatio="xMidYMid meet" version="1.0"><defs><clipPath id="95b76c94bd"><path d="M 18 0 L 366 0 C 370.773438 0 375.351562 1.894531 378.726562 5.273438 C 382.105469 8.648438 384 13.226562 384 18 L 384 366 C 384 375.941406 375.941406 384 366 384 L 18 384 C 13.226562 384 8.648438 382.105469 5.273438 378.726562 C 1.894531 375.351562 0 370.773438 0 366 L 0 18 C 0 13.226562 1.894531 8.648438 5.273438 5.273438 C 8.648438 1.894531 13.226562 0 18 0 " clip-rule="nonzero"/></clipPath><clipPath id="3c1cf5966f"><path d="M 97.886719 39 L 286 39 L 286 345.898438 L 97.886719 345.898438 Z M 97.886719 39 " clip-rule="nonzero"/></clipPath></defs><g clip-path="url(#95b76c94bd)"><path fill="#563d7c" d="M 0 0 L 383.398438 0 L 383.398438 383.398438 L 0 383.398438 Z M 0 0 " fill-opacity="1" fill-rule="nonzero"/></g><g clip-path="url(#3c1cf5966f)"><path fill="#ffffff" d="M 285.445312 133.257812 L 285.445312 54.046875 C 285.445312 45.859375 278.839844 39.25 270.660156 39.25 L 112.375 39.25 C 104.191406 39.25 97.589844 45.859375 97.589844 54.046875 L 97.589844 133.257812 C 97.589844 180.015625 131.988281 218.785156 176.734375 225.984375 L 176.734375 315.457031 L 142.238281 315.457031 C 134.054688 315.457031 127.453125 322.066406 127.453125 330.253906 C 127.453125 338.441406 134.054688 345.050781 142.238281 345.050781 L 240.796875 345.050781 C 248.976562 345.050781 255.582031 338.441406 255.582031 330.253906 C 255.582031 322.066406 248.976562 315.457031 240.796875 315.457031 L 206.300781 315.457031 L 206.300781 225.984375 C 251.046875 218.785156 285.445312 180.015625 285.445312 133.257812 Z M 285.445312 133.257812 " fill-opacity="1" fill-rule="nonzero"/></g></svg>