<svg xmlns="http://www.w3.org/2000/svg" xmlns:xlink="http://www.w3.org/1999/xlink" width="512" zoomAndPan="magnify" viewBox="0 0 384 383.999986" height="512" preserveAspectRatio="xMidYMid meet" version="1.0"><defs><clipPath id="8a7f4b137e"><path d="M 18 0 L 366 0 C 370.773438 0 375.351562 1.894531 378.726562 5.273438 C 382.105469 8.648438 384 13.226562 384 18 L 384 366 C 384 375.941406 375.941406 384 366 384 L 18 384 C 13.226562 384 8.648438 382.105469 5.273438 378.726562 C 1.894531 375.351562 0 370.773438 0 366 L 0 18 C 0 8.058594 8.058594 0 18 0 " clip-rule="nonzero"/></clipPath><clipPath id="19ff7e58d2"><path d="M 56 79.453125 L 104 79.453125 L 104 126 L 56 126 Z M 56 79.453125 " clip-rule="nonzero"/></clipPath><clipPath id="033b1f8f3c"><path d="M 62 129 L 169.648438 129 L 169.648438 301 L 62 301 Z M 62 129 " clip-rule="nonzero"/></clipPath><clipPath id="2636ebc303"><path d="M 232 79.453125 L 279 79.453125 L 279 126 L 232 126 Z M 232 79.453125 " clip-rule="nonzero"/></clipPath><clipPath id="5e95651c47"><path d="M 237 129 L 345.449219 129 L 345.449219 301 L 237 301 Z M 237 129 " clip-rule="nonzero"/></clipPath></defs><g clip-path="url(#8a7f4b137e)"><path fill="#563d7c" d="M 0 0 L 383.398438 0 L 383.398438 383.398438 L 0 383.398438 Z M 0 0 " fill-opacity="1" fill-rule="nonzero"/></g><g clip-path="url(#19ff7e58d2)"><path fill="#ffffff" d="M 79.90625 125.757812 C 92.683594 125.757812 103.042969 115.390625 103.042969 102.605469 C 103.042969 89.816406 92.683594 79.453125 79.90625 79.453125 C 67.125 79.453125 56.765625 89.816406 56.765625 102.605469 C 56.765625 115.390625 67.125 125.757812 79.90625 125.757812 Z M 79.90625 125.757812 " fill-opacity="1" fill-rule="nonzero"/></g><g clip-path="url(#033b1f8f3c)"><path fill="#ffffff" d="M 62.324219 153.921875 C 58.164062 127.273438 96.566406 119.183594 102.75 146.429688 L 113.210938 198.625 L 152.246094 198.703125 C 163.640625 198.703125 169.566406 207.828125 169.566406 216.265625 L 169.566406 287.230469 C 169.566406 304.460938 145.046875 304.382812 145.046875 286.921875 L 145.046875 231.695312 L 95.191406 231.695312 C 83.566406 231.695312 76.273438 223.710938 74.449219 214.589844 Z M 62.324219 153.921875 " fill-opacity="1" fill-rule="nonzero"/></g><path fill="#ffffff" d="M 126.765625 236.351562 C 139.71875 236.351562 139.65625 255.523438 126.945312 255.523438 L 91.144531 255.523438 C 73.742188 255.523438 56.382812 242.433594 51.839844 222.210938 L 40.6875 167.957031 C 38.425781 155.640625 56.144531 151.539062 58.757812 164.152344 L 69.335938 216.050781 C 72.300781 229.28125 82.101562 236.351562 93.953125 236.351562 Z M 126.765625 236.351562 " fill-opacity="1" fill-rule="nonzero"/><g clip-path="url(#2636ebc303)"><path fill="#ffffff" d="M 255.703125 125.757812 C 268.484375 125.757812 278.839844 115.390625 278.839844 102.605469 C 278.839844 89.816406 268.484375 79.453125 255.703125 79.453125 C 242.925781 79.453125 232.566406 89.816406 232.566406 102.605469 C 232.566406 115.390625 242.925781 125.757812 255.703125 125.757812 Z M 255.703125 125.757812 " fill-opacity="1" fill-rule="nonzero"/></g><g clip-path="url(#5e95651c47)"><path fill="#ffffff" d="M 238.125 153.921875 C 233.964844 127.273438 272.367188 119.183594 278.550781 146.429688 L 289.011719 198.625 L 328.046875 198.703125 C 339.441406 198.703125 345.367188 207.828125 345.367188 216.265625 L 345.367188 287.230469 C 345.367188 304.460938 320.847656 304.382812 320.847656 286.921875 L 320.847656 231.695312 L 270.992188 231.695312 C 259.367188 231.695312 252.074219 223.710938 250.25 214.589844 Z M 238.125 153.921875 " fill-opacity="1" fill-rule="nonzero"/></g><path fill="#ffffff" d="M 302.566406 236.351562 C 315.519531 236.351562 315.457031 255.523438 302.746094 255.523438 L 266.945312 255.523438 C 249.539062 255.523438 232.179688 242.433594 227.640625 222.210938 L 216.488281 167.957031 C 214.226562 155.640625 231.945312 151.539062 234.558594 164.152344 L 245.136719 216.050781 C 248.097656 229.28125 257.898438 236.351562 269.75 236.351562 Z M 302.566406 236.351562 " fill-opacity="1" fill-rule="nonzero"/></svg>