<svg xmlns="http://www.w3.org/2000/svg" xmlns:xlink="http://www.w3.org/1999/xlink" width="512" zoomAndPan="magnify" viewBox="0 0 384 383.999986" height="512" preserveAspectRatio="xMidYMid meet" version="1.0"><defs><clipPath id="b7693b7c6a"><path d="M 18 0 L 366 0 C 370.773438 0 375.351562 1.894531 378.726562 5.273438 C 382.105469 8.648438 384 13.226562 384 18 L 384 366 C 384 375.941406 375.941406 384 366 384 L 18 384 C 13.226562 384 8.648438 382.105469 5.273438 378.726562 C 1.894531 375.351562 0 370.773438 0 366 L 0 18 C 0 13.226562 1.894531 8.648438 5.273438 5.273438 C 8.648438 1.894531 13.226562 0 18 0 " clip-rule="nonzero"/></clipPath><clipPath id="19c3313879"><path d="M 318 124 L 338 124 L 338 282.253906 L 318 282.253906 Z M 318 124 " clip-rule="nonzero"/></clipPath><clipPath id="50660f79e5"><path d="M 46 152 L 67 152 L 67 282.253906 L 46 282.253906 Z M 46 152 " clip-rule="nonzero"/></clipPath><clipPath id="2fb456365b"><path d="M 315 101.503906 L 340 101.503906 L 340 127 L 315 127 Z M 315 101.503906 " clip-rule="nonzero"/></clipPath></defs><g clip-path="url(#b7693b7c6a)"><path fill="#563d7c" d="M 0 0 L 383.398438 0 L 383.398438 383.398438 L 0 383.398438 Z M 0 0 " fill-opacity="1" fill-rule="nonzero"/></g><path fill="#ffffff" d="M 319.003906 231.851562 L 66.078125 231.851562 L 66.078125 182.257812 L 319.003906 182.257812 L 319.003906 231.851562 " fill-opacity="1" fill-rule="nonzero"/><path fill="#ffffff" d="M 66.878906 231.054688 L 318.203125 231.054688 L 318.203125 183.054688 L 66.878906 183.054688 Z M 319.800781 232.648438 L 65.28125 232.648438 L 65.28125 181.460938 L 319.800781 181.460938 L 319.800781 232.648438 " fill-opacity="1" fill-rule="nonzero"/><path fill="#ffffff" d="M 337.066406 281.441406 L 319.003906 281.441406 L 319.003906 125.613281 L 337.066406 125.613281 L 337.066406 281.441406 " fill-opacity="1" fill-rule="nonzero"/><g clip-path="url(#19c3313879)"><path fill="#ffffff" d="M 319.800781 280.644531 L 336.269531 280.644531 L 336.269531 126.410156 L 319.800781 126.410156 Z M 337.867188 282.238281 L 318.203125 282.238281 L 318.203125 124.816406 L 337.867188 124.816406 L 337.867188 282.238281 " fill-opacity="1" fill-rule="nonzero"/></g><path fill="#ffffff" d="M 65.597656 281.441406 L 47.53125 281.441406 L 47.53125 153.242188 L 65.597656 153.242188 L 65.597656 281.441406 " fill-opacity="1" fill-rule="nonzero"/><g clip-path="url(#50660f79e5)"><path fill="#ffffff" d="M 48.328125 280.644531 L 64.796875 280.644531 L 64.796875 154.042969 L 48.328125 154.042969 Z M 66.394531 282.238281 L 46.730469 282.238281 L 46.730469 152.445312 L 66.394531 152.445312 L 66.394531 282.238281 " fill-opacity="1" fill-rule="nonzero"/></g><path fill="#ffffff" d="M 66.078125 244.210938 L 319.003906 244.210938 L 319.003906 231.851562 L 66.078125 231.851562 L 66.078125 244.210938 " fill-opacity="1" fill-rule="nonzero"/><path fill="#ffffff" d="M 66.878906 243.414062 L 318.203125 243.414062 L 318.203125 232.648438 L 66.878906 232.648438 Z M 319.800781 245.007812 L 65.28125 245.007812 L 65.28125 231.054688 L 319.800781 231.054688 L 319.800781 245.007812 " fill-opacity="1" fill-rule="nonzero"/><path fill="#ffffff" d="M 272.195312 231.851562 L 270.597656 231.851562 L 270.597656 182.257812 L 272.195312 182.257812 L 272.195312 231.851562 " fill-opacity="1" fill-rule="nonzero"/><path fill="#ffffff" d="M 247.683594 180.058594 C 247.683594 180.058594 260.945312 185.59375 286.644531 179.105469 C 312.34375 172.621094 319.003906 156.796875 319.003906 156.796875 C 319.003906 156.796875 308.117188 142.441406 278.644531 149.882812 C 249.167969 157.324219 247.683594 180.058594 247.683594 180.058594 " fill-opacity="1" fill-rule="nonzero"/><path fill="#ffffff" d="M 248.546875 179.523438 C 250.140625 180.054688 255.125 181.460938 263.292969 181.464844 C 270.433594 181.464844 278.222656 180.410156 286.445312 178.335938 C 309.046875 172.628906 316.75 159.476562 318.054688 156.917969 C 316.554688 155.277344 309.488281 148.542969 294.546875 148.542969 C 289.683594 148.542969 284.402344 149.25 278.839844 150.65625 C 252.890625 157.207031 249.046875 175.960938 248.546875 179.523438 Z M 263.292969 183.058594 C 252.914062 183.054688 247.59375 180.886719 247.375 180.796875 L 246.847656 180.574219 L 246.886719 180.007812 C 246.902344 179.765625 247.316406 174.050781 251.429688 167.34375 C 255.207031 161.183594 262.960938 153.019531 278.449219 149.109375 C 284.136719 147.675781 289.550781 146.949219 294.546875 146.949219 C 312.328125 146.949219 319.347656 155.933594 319.636719 156.316406 L 319.914062 156.683594 L 319.738281 157.105469 C 319.460938 157.765625 312.628906 173.367188 286.839844 179.878906 C 278.488281 181.988281 270.566406 183.058594 263.292969 183.058594 " fill-opacity="1" fill-rule="nonzero"/><path fill="#ffffff" d="M 255.960938 174.925781 C 255.960938 174.925781 283.425781 153.246094 307.699219 157.390625 " fill-opacity="1" fill-rule="nonzero"/><path fill="#ffffff" d="M 256.457031 175.550781 L 255.464844 174.300781 C 256.597656 173.40625 283.492188 152.445312 307.835938 156.601562 L 307.566406 158.175781 C 283.921875 154.140625 256.730469 175.335938 256.457031 175.550781 " fill-opacity="1" fill-rule="nonzero"/><path fill="#ffffff" d="M 54.113281 165.796875 L 47.53125 165.796875 L 47.53125 164.203125 L 54.113281 164.203125 L 54.113281 165.796875 " fill-opacity="1" fill-rule="nonzero"/><path fill="#ffffff" d="M 59.546875 170.300781 L 47.53125 170.300781 L 47.53125 168.707031 L 59.546875 168.707031 L 59.546875 170.300781 " fill-opacity="1" fill-rule="nonzero"/><path fill="#ffffff" d="M 53.539062 175.722656 L 47.53125 175.722656 L 47.53125 174.125 L 53.539062 174.125 L 53.539062 175.722656 " fill-opacity="1" fill-rule="nonzero"/><path fill="#ffffff" d="M 54.113281 243.625 L 47.53125 243.625 L 47.53125 242.03125 L 54.113281 242.03125 L 54.113281 243.625 " fill-opacity="1" fill-rule="nonzero"/><path fill="#ffffff" d="M 56.5625 247.769531 L 47.53125 247.769531 L 47.53125 246.175781 L 56.5625 246.175781 L 56.5625 247.769531 " fill-opacity="1" fill-rule="nonzero"/><path fill="#ffffff" d="M 53.539062 252.234375 L 47.53125 252.234375 L 47.53125 250.636719 L 53.539062 250.636719 L 53.539062 252.234375 " fill-opacity="1" fill-rule="nonzero"/><path fill="#ffffff" d="M 101.703125 237.25 L 66.078125 237.25 L 66.078125 235.65625 L 101.703125 235.65625 L 101.703125 237.25 " fill-opacity="1" fill-rule="nonzero"/><path fill="#ffffff" d="M 182.1875 238.828125 L 171.644531 238.828125 L 171.644531 237.234375 L 182.1875 237.234375 L 182.1875 238.828125 " fill-opacity="1" fill-rule="nonzero"/><path fill="#ffffff" d="M 325.585938 237.25 L 319.003906 237.25 L 319.003906 235.65625 L 325.585938 235.65625 L 325.585938 237.25 " fill-opacity="1" fill-rule="nonzero"/><path fill="#ffffff" d="M 328.035156 241.710938 L 319.003906 241.710938 L 319.003906 240.117188 L 328.035156 240.117188 L 328.035156 241.710938 " fill-opacity="1" fill-rule="nonzero"/><path fill="#ffffff" d="M 328.035156 248.726562 L 319.003906 248.726562 L 319.003906 247.132812 L 328.035156 247.132812 L 328.035156 248.726562 " fill-opacity="1" fill-rule="nonzero"/><path fill="#ffffff" d="M 323.515625 136.828125 L 319.003906 136.828125 L 319.003906 135.234375 L 323.515625 135.234375 L 323.515625 136.828125 " fill-opacity="1" fill-rule="nonzero"/><path fill="#ffffff" d="M 325.585938 141.289062 L 319.003906 141.289062 L 319.003906 139.695312 L 325.585938 139.695312 L 325.585938 141.289062 " fill-opacity="1" fill-rule="nonzero"/><path fill="#ffffff" d="M 323.515625 146.074219 L 319.003906 146.074219 L 319.003906 144.480469 L 323.515625 144.480469 L 323.515625 146.074219 " fill-opacity="1" fill-rule="nonzero"/><path fill="#ffffff" d="M 323.515625 197.082031 L 319.003906 197.082031 L 319.003906 195.488281 L 323.515625 195.488281 L 323.515625 197.082031 " fill-opacity="1" fill-rule="nonzero"/><path fill="#ffffff" d="M 328.035156 201.863281 L 319.003906 201.863281 L 319.003906 200.269531 L 328.035156 200.269531 L 328.035156 201.863281 " fill-opacity="1" fill-rule="nonzero"/><path fill="#ffffff" d="M 325.585938 207.851562 L 319.003906 207.851562 L 319.003906 206.257812 L 325.585938 206.257812 L 325.585938 207.851562 " fill-opacity="1" fill-rule="nonzero"/><path fill="#ffffff" d="M 74.875 194.851562 L 66.570312 194.851562 L 66.570312 193.253906 L 74.875 193.253906 L 74.875 194.851562 " fill-opacity="1" fill-rule="nonzero"/><path fill="#ffffff" d="M 76.152344 200.269531 L 66.570312 200.269531 L 66.570312 198.671875 L 76.152344 198.671875 L 76.152344 200.269531 " fill-opacity="1" fill-rule="nonzero"/><path fill="#ffffff" d="M 73.277344 206.324219 L 66.570312 206.324219 L 66.570312 204.730469 L 73.277344 204.730469 L 73.277344 206.324219 " fill-opacity="1" fill-rule="nonzero"/><path fill="#ffffff" d="M 246.058594 211.746094 L 119.90625 211.746094 L 119.90625 210.152344 L 246.058594 210.152344 L 246.058594 211.746094 " fill-opacity="1" fill-rule="nonzero"/><path fill="#ffffff" d="M 278.316406 194.851562 L 271.394531 194.851562 L 271.394531 193.253906 L 278.316406 193.253906 L 278.316406 194.851562 " fill-opacity="1" fill-rule="nonzero"/><path fill="#ffffff" d="M 279.597656 201.863281 L 271.394531 201.863281 L 271.394531 200.269531 L 279.597656 200.269531 L 279.597656 201.863281 " fill-opacity="1" fill-rule="nonzero"/><path fill="#ffffff" d="M 278.316406 207.851562 L 271.394531 207.851562 L 271.394531 206.257812 L 278.316406 206.257812 L 278.316406 207.851562 " fill-opacity="1" fill-rule="nonzero"/><path fill="#ffffff" d="M 264.90625 162.046875 L 257.28125 162.046875 L 257.28125 160.453125 L 264.90625 160.453125 L 264.90625 162.046875 " fill-opacity="1" fill-rule="nonzero"/><path fill="#ffffff" d="M 261.09375 165.796875 L 253.996094 165.796875 L 253.996094 164.203125 L 261.09375 164.203125 L 261.09375 165.796875 " fill-opacity="1" fill-rule="nonzero"/><path fill="#ffffff" d="M 255.960938 170.011719 L 251.273438 170.011719 L 251.273438 168.414062 L 255.960938 168.414062 L 255.960938 170.011719 " fill-opacity="1" fill-rule="nonzero"/><path fill="#ffffff" d="M 278.316406 167.894531 L 268 167.894531 L 268 166.300781 L 278.316406 166.300781 L 278.316406 167.894531 " fill-opacity="1" fill-rule="nonzero"/><path fill="#ffffff" d="M 271.394531 170.878906 L 262.980469 170.878906 L 262.980469 169.285156 L 271.394531 169.285156 L 271.394531 170.878906 " fill-opacity="1" fill-rule="nonzero"/><g clip-path="url(#2fb456365b)"><path fill="#ffffff" d="M 327.523438 103.105469 C 321.527344 103.105469 316.648438 107.972656 316.648438 113.960938 C 316.648438 119.945312 321.527344 124.816406 327.523438 124.816406 C 333.519531 124.816406 338.398438 119.945312 338.398438 113.960938 C 338.398438 107.972656 333.519531 103.105469 327.523438 103.105469 Z M 327.523438 126.410156 C 320.648438 126.410156 315.050781 120.824219 315.050781 113.960938 C 315.050781 107.09375 320.648438 101.507812 327.523438 101.507812 C 334.402344 101.507812 339.996094 107.09375 339.996094 113.960938 C 339.996094 120.824219 334.402344 126.410156 327.523438 126.410156 " fill-opacity="1" fill-rule="nonzero"/></g><path fill="#ffffff" d="M 56.5625 130.167969 C 50.566406 130.167969 45.691406 135.039062 45.691406 141.023438 C 45.691406 147.011719 50.566406 151.878906 56.5625 151.878906 C 62.5625 151.878906 67.4375 147.011719 67.4375 141.023438 C 67.4375 135.039062 62.5625 130.167969 56.5625 130.167969 Z M 56.5625 153.472656 C 49.6875 153.472656 44.09375 147.890625 44.09375 141.023438 C 44.09375 134.160156 49.6875 128.574219 56.5625 128.574219 C 63.441406 128.574219 69.035156 134.160156 69.035156 141.023438 C 69.035156 147.890625 63.441406 153.472656 56.5625 153.472656 " fill-opacity="1" fill-rule="nonzero"/><path fill="#ffffff" d="M 52.046875 136.828125 L 46.015625 136.828125 L 46.015625 135.234375 L 52.046875 135.234375 L 52.046875 136.828125 " fill-opacity="1" fill-rule="nonzero"/><path fill="#ffffff" d="M 56.5625 141.820312 L 44.890625 141.820312 L 44.890625 140.226562 L 56.5625 140.226562 L 56.5625 141.820312 " fill-opacity="1" fill-rule="nonzero"/><path fill="#ffffff" d="M 56.5625 148.542969 L 47.027344 148.542969 L 47.027344 146.949219 L 56.5625 146.949219 L 56.5625 148.542969 " fill-opacity="1" fill-rule="nonzero"/><path fill="#ffffff" d="M 323.515625 108.734375 L 317.527344 108.734375 L 317.527344 107.140625 L 323.515625 107.140625 L 323.515625 108.734375 " fill-opacity="1" fill-rule="nonzero"/><path fill="#ffffff" d="M 325.585938 114.757812 L 315.851562 114.757812 L 315.851562 113.164062 L 325.585938 113.164062 L 325.585938 114.757812 " fill-opacity="1" fill-rule="nonzero"/><path fill="#ffffff" d="M 325.585938 120.777344 L 317.527344 120.777344 L 317.527344 119.183594 L 325.585938 119.183594 L 325.585938 120.777344 " fill-opacity="1" fill-rule="nonzero"/></svg>