<svg xmlns="http://www.w3.org/2000/svg" xmlns:xlink="http://www.w3.org/1999/xlink" width="512" zoomAndPan="magnify" viewBox="0 0 384 383.999986" height="512" preserveAspectRatio="xMidYMid meet" version="1.0"><defs><g/><clipPath id="0b17368c01"><path d="M 18 0 L 366 0 C 370.773438 0 375.351562 1.894531 378.726562 5.273438 C 382.105469 8.648438 384 13.226562 384 18 L 384 366 C 384 375.941406 375.941406 384 366 384 L 18 384 C 13.226562 384 8.648438 382.105469 5.273438 378.726562 C 1.894531 375.351562 0 370.773438 0 366 L 0 18 C 0 13.226562 1.894531 8.648438 5.273438 5.273438 C 8.648438 1.894531 13.226562 0 18 0 " clip-rule="nonzero"/></clipPath></defs><g clip-path="url(#0b17368c01)"><path fill="#563d7c" d="M 0 0 L 383.398438 0 L 383.398438 383.398438 L 0 383.398438 Z M 0 0 " fill-opacity="1" fill-rule="nonzero"/></g><g fill="#ffffff" fill-opacity="1"><g transform="translate(38.400004, 267.195389)"><g><path d="M 152.671875 0 L 111.625 0 L 99.3125 -55.984375 C 98.726562 -58.328125 97.804688 -62.984375 96.546875 -69.953125 C 95.285156 -76.929688 94.363281 -82.765625 93.78125 -87.453125 C 93.3125 -83.640625 92.546875 -78.90625 91.484375 -73.25 C 90.429688 -67.601562 89.394531 -62.40625 88.375 -57.65625 C 87.351562 -52.90625 83.09375 -33.6875 75.59375 0 L 34.546875 0 L 2.71875 -128.5 L 36.21875 -128.5 L 50.1875 -64.078125 C 53.351562 -49.835938 55.519531 -38.5 56.6875 -30.0625 C 57.445312 -36.039062 58.804688 -44.15625 60.765625 -54.40625 C 62.734375 -64.65625 64.566406 -73.148438 66.265625 -79.890625 L 77.609375 -128.5 L 109.78125 -128.5 L 120.765625 -79.890625 C 122.640625 -72.097656 124.539062 -63.101562 126.46875 -52.90625 C 128.40625 -42.71875 129.695312 -35.101562 130.34375 -30.0625 C 131.101562 -36.5625 133.179688 -47.835938 136.578125 -63.890625 L 150.828125 -128.5 L 184.3125 -128.5 Z M 152.671875 0 "/></g></g><g transform="translate(225.431239, 267.195389)"><g><path d="M 71.109375 -101.859375 C 62.847656 -101.859375 56.398438 -98.472656 51.765625 -91.703125 C 47.140625 -84.941406 44.828125 -75.613281 44.828125 -63.71875 C 44.828125 -38.988281 54.226562 -26.625 73.03125 -26.625 C 78.71875 -26.625 84.226562 -27.414062 89.5625 -29 C 94.894531 -30.582031 100.253906 -32.488281 105.640625 -34.71875 L 105.640625 -5.359375 C 94.921875 -0.609375 82.796875 1.765625 69.265625 1.765625 C 49.867188 1.765625 35 -3.859375 24.65625 -15.109375 C 14.3125 -26.367188 9.140625 -42.628906 9.140625 -63.890625 C 9.140625 -77.191406 11.644531 -88.878906 16.65625 -98.953125 C 21.664062 -109.035156 28.875 -116.785156 38.28125 -122.203125 C 47.6875 -127.628906 58.742188 -130.34375 71.453125 -130.34375 C 85.335938 -130.34375 98.609375 -127.328125 111.265625 -121.296875 L 100.640625 -93.953125 C 95.890625 -96.179688 91.140625 -98.054688 86.390625 -99.578125 C 81.648438 -101.097656 76.554688 -101.859375 71.109375 -101.859375 Z M 71.109375 -101.859375 "/></g></g></g></svg>