<svg xmlns="http://www.w3.org/2000/svg" xmlns:xlink="http://www.w3.org/1999/xlink" width="512" zoomAndPan="magnify" viewBox="0 0 384 383.999986" height="512" preserveAspectRatio="xMidYMid meet" version="1.0"><defs><clipPath id="637f50ede3"><path d="M 18 0 L 366 0 C 370.773438 0 375.351562 1.894531 378.726562 5.273438 C 382.105469 8.648438 384 13.226562 384 18 L 384 366 C 384 375.941406 375.941406 384 366 384 L 18 384 C 13.226562 384 8.648438 382.105469 5.273438 378.726562 C 1.894531 375.351562 0 370.773438 0 366 L 0 18 C 0 13.226562 1.894531 8.648438 5.273438 5.273438 C 8.648438 1.894531 13.226562 0 18 0 " clip-rule="nonzero"/></clipPath><clipPath id="9891ad0bce"><path d="M 62.515625 62.515625 L 321.265625 62.515625 L 321.265625 321.265625 L 62.515625 321.265625 Z M 62.515625 62.515625 " clip-rule="nonzero"/></clipPath></defs><g clip-path="url(#637f50ede3)"><path fill="#563d7c" d="M 0 0 L 383.398438 0 L 383.398438 383.398438 L 0 383.398438 Z M 0 0 " fill-opacity="1" fill-rule="nonzero"/></g><g clip-path="url(#9891ad0bce)"><path fill="#ffffff" d="M 97.617188 251.035156 C 117.007812 251.035156 132.71875 266.757812 132.71875 286.148438 C 132.71875 305.527344 117.007812 321.253906 97.617188 321.253906 C 78.226562 321.253906 62.515625 305.527344 62.515625 286.148438 C 62.515625 266.757812 78.226562 251.035156 97.617188 251.035156 Z M 72.566406 62.523438 C 140.058594 65.105469 200.941406 93.519531 245.589844 138.171875 C 290.238281 182.820312 318.660156 243.699219 321.234375 311.199219 C 321.34375 313.929688 320.433594 316.3125 318.53125 318.285156 C 316.640625 320.25 314.289062 321.253906 311.558594 321.253906 L 272.785156 321.253906 C 267.597656 321.253906 263.339844 317.183594 263.101562 312.003906 C 260.753906 260.230469 238.8125 213.5625 204.507812 179.257812 C 170.199219 144.953125 123.527344 122.996094 71.757812 120.65625 C 66.578125 120.425781 62.515625 116.160156 62.515625 110.984375 L 62.515625 72.207031 C 62.515625 69.46875 63.503906 67.117188 65.472656 65.222656 C 67.449219 63.335938 69.839844 62.417969 72.566406 62.523438 Z M 213.039062 321.253906 L 174.1875 321.253906 C 169.140625 321.253906 164.96875 317.421875 164.53125 312.398438 C 162.417969 287.652344 151.496094 265.410156 134.921875 248.835938 C 118.347656 232.265625 96.121094 221.34375 71.367188 219.222656 C 66.339844 218.796875 62.515625 214.621094 62.515625 209.578125 L 62.515625 170.726562 C 62.515625 167.960938 63.546875 165.566406 65.5625 163.667969 C 67.589844 161.769531 70.035156 160.890625 72.804688 161.058594 C 113.027344 163.609375 149.230469 180.96875 176.011719 207.757812 C 202.789062 234.535156 220.148438 270.734375 222.699219 310.957031 C 222.882812 313.726562 221.996094 316.171875 220.097656 318.199219 C 218.203125 320.21875 215.8125 321.253906 213.039062 321.253906 Z M 213.039062 321.253906 " fill-opacity="1" fill-rule="evenodd"/></g></svg>