<svg xmlns="http://www.w3.org/2000/svg" xmlns:xlink="http://www.w3.org/1999/xlink" width="512" zoomAndPan="magnify" viewBox="0 0 384 383.999986" height="512" preserveAspectRatio="xMidYMid meet" version="1.0"><defs><clipPath id="47a756f84e"><path d="M 18 0 L 366 0 C 370.773438 0 375.351562 1.894531 378.726562 5.273438 C 382.105469 8.648438 384 13.226562 384 18 L 384 366 C 384 375.941406 375.941406 384 366 384 L 18 384 C 13.226562 384 8.648438 382.105469 5.273438 378.726562 C 1.894531 375.351562 0 370.773438 0 366 L 0 18 C 0 13.226562 1.894531 8.648438 5.273438 5.273438 C 8.648438 1.894531 13.226562 0 18 0 " clip-rule="nonzero"/></clipPath><clipPath id="51474e78a0"><path d="M 12 86 L 371 86 L 371 331 L 12 331 Z M 12 86 " clip-rule="nonzero"/></clipPath><clipPath id="468e22518e"><path d="M 8.929688 158.371094 L 196 -20.394531 L 374.765625 166.675781 L 187.695312 345.441406 Z M 8.929688 158.371094 " clip-rule="nonzero"/></clipPath><clipPath id="12d3cefa69"><path d="M 8.929688 158.371094 L 196 -20.394531 L 374.765625 166.675781 L 187.695312 345.441406 Z M 8.929688 158.371094 " clip-rule="nonzero"/></clipPath><clipPath id="d20a3f9d0f"><path d="M 8.929688 158.371094 L 196 -20.394531 L 374.765625 166.675781 L 187.695312 345.441406 Z M 8.929688 158.371094 " clip-rule="nonzero"/></clipPath></defs><g clip-path="url(#47a756f84e)"><path fill="#563d7c" d="M 0 0 L 383.398438 0 L 383.398438 383.398438 L 0 383.398438 Z M 0 0 " fill-opacity="1" fill-rule="nonzero"/></g><g clip-path="url(#51474e78a0)"><g clip-path="url(#468e22518e)"><g clip-path="url(#12d3cefa69)"><g clip-path="url(#d20a3f9d0f)"><path fill="#ffffff" d="M 164.550781 270.414062 C 178.570312 257.015625 200.789062 257.53125 214.1875 271.546875 C 227.574219 285.558594 227.082031 307.78125 213.0625 321.179688 C 199.042969 334.574219 176.820312 334.0625 163.429688 320.050781 C 150.035156 306.03125 150.53125 283.808594 164.550781 270.414062 Z M 16.203125 151.433594 C 66.78125 106.667969 130.425781 85.152344 193.558594 86.589844 C 256.683594 88.019531 319.289062 112.398438 367.785156 159.421875 C 369.75 161.320312 370.742188 163.667969 370.730469 166.410156 C 370.71875 169.136719 369.710938 171.488281 367.738281 173.371094 L 339.707031 200.160156 C 335.953125 203.746094 330.0625 203.746094 326.3125 200.164062 C 288.847656 164.355469 240.742188 145.777344 192.238281 144.675781 C 143.734375 143.574219 94.824219 159.945312 55.78125 194.015625 C 51.875 197.429688 45.992188 197.152344 42.414062 193.410156 L 15.625 165.375 C 13.734375 163.398438 12.824219 161.011719 12.9375 158.28125 C 13.0625 155.554688 14.15625 153.238281 16.203125 151.433594 Z M 296.507812 241.4375 L 268.421875 268.277344 C 264.769531 271.765625 259.109375 271.878906 255.320312 268.546875 C 236.695312 252.117188 213.433594 243.585938 190.003906 243.050781 C 166.570312 242.523438 142.957031 249.984375 123.59375 265.550781 C 119.667969 268.714844 114.015625 268.339844 110.53125 264.691406 L 83.691406 236.601562 C 81.777344 234.601562 80.871094 232.160156 81.019531 229.394531 C 81.171875 226.621094 82.328125 224.296875 84.449219 222.503906 C 115.289062 196.5625 153.460938 184.101562 191.328125 184.964844 C 229.1875 185.824219 266.746094 200 296.378906 227.320312 C 298.425781 229.195312 299.476562 231.574219 299.5 234.351562 C 299.527344 237.121094 298.515625 239.523438 296.507812 241.4375 Z M 296.507812 241.4375 " fill-opacity="1" fill-rule="evenodd"/></g></g></g></g></svg>