<svg xmlns="http://www.w3.org/2000/svg" xmlns:xlink="http://www.w3.org/1999/xlink" width="512" zoomAndPan="magnify" viewBox="0 0 384 383.999986" height="512" preserveAspectRatio="xMidYMid meet" version="1.0"><defs><g/><clipPath id="98d912e37a"><path d="M 18 0 L 366 0 C 370.773438 0 375.351562 1.894531 378.726562 5.273438 C 382.105469 8.648438 384 13.226562 384 18 L 384 366 C 384 375.941406 375.941406 384 366 384 L 18 384 C 13.226562 384 8.648438 382.105469 5.273438 378.726562 C 1.894531 375.351562 0 370.773438 0 366 L 0 18 C 0 13.226562 1.894531 8.648438 5.273438 5.273438 C 8.648438 1.894531 13.226562 0 18 0 " clip-rule="nonzero"/></clipPath></defs><g clip-path="url(#98d912e37a)"><path fill="#563d7c" d="M 0 0 L 383.398438 0 L 383.398438 383.398438 L 0 383.398438 Z M 0 0 " fill-opacity="1" fill-rule="nonzero"/></g><g fill="#ffffff" fill-opacity="1"><g transform="translate(147.951163, 164.350038)"><g><path d="M 58.875 0 L 33.8125 0 L 33.8125 -48.375 C 33.8125 -54.25 33.9375 -59.625 34.1875 -64.5 C 32.644531 -62.625 30.726562 -60.664062 28.4375 -58.625 L 18.0625 -50.0625 L 5.25 -65.8125 L 36.625 -91.375 L 58.875 -91.375 Z M 58.875 0 "/></g></g></g><g fill="#ffffff" fill-opacity="1"><g transform="translate(154.499995, 318.649926)"><g><path d="M 70.125 0 L 3.8125 0 L 3.8125 -16.25 L 26.125 -38.8125 C 32.5 -45.476562 36.664062 -50.03125 38.625 -52.46875 C 40.582031 -54.90625 41.945312 -57 42.71875 -58.75 C 43.488281 -60.5 43.875 -62.332031 43.875 -64.25 C 43.875 -66.625 43.101562 -68.5 41.5625 -69.875 C 40.019531 -71.25 37.851562 -71.9375 35.0625 -71.9375 C 32.1875 -71.9375 29.28125 -71.113281 26.34375 -69.46875 C 23.40625 -67.820312 20.082031 -65.394531 16.375 -62.1875 L 2.8125 -78.0625 C 7.519531 -82.269531 11.476562 -85.28125 14.6875 -87.09375 C 17.894531 -88.90625 21.382812 -90.289062 25.15625 -91.25 C 28.925781 -92.207031 33.164062 -92.6875 37.875 -92.6875 C 43.789062 -92.6875 49.070312 -91.644531 53.71875 -89.5625 C 58.363281 -87.476562 61.96875 -84.507812 64.53125 -80.65625 C 67.09375 -76.800781 68.375 -72.476562 68.375 -67.6875 C 68.375 -64.101562 67.925781 -60.789062 67.03125 -57.75 C 66.132812 -54.707031 64.75 -51.71875 62.875 -48.78125 C 61 -45.84375 58.507812 -42.75 55.40625 -39.5 C 52.300781 -36.25 45.6875 -30.082031 35.5625 -21 L 35.5625 -20.375 L 70.125 -20.375 Z M 70.125 0 "/></g></g></g><path stroke-linecap="butt" transform="matrix(-0.750744, -0.000000000000000092, 0.000000000000000092, -0.75, 345.595293, 195.425082)" fill="none" stroke-linejoin="miter" d="M 0.00205482 5.499068 L 409.601052 5.499068 " stroke="#ffffff" stroke-width="11" stroke-opacity="1" stroke-miterlimit="4"/></svg>