<svg xmlns="http://www.w3.org/2000/svg" xmlns:xlink="http://www.w3.org/1999/xlink" width="512" zoomAndPan="magnify" viewBox="0 0 384 383.999986" height="512" preserveAspectRatio="xMidYMid meet" version="1.0"><defs><g/><clipPath id="26b78bc7dd"><path d="M 18 0 L 366 0 C 370.773438 0 375.351562 1.894531 378.726562 5.273438 C 382.105469 8.648438 384 13.226562 384 18 L 384 366 C 384 375.941406 375.941406 384 366 384 L 18 384 C 13.226562 384 8.648438 382.105469 5.273438 378.726562 C 1.894531 375.351562 0 370.773438 0 366 L 0 18 C 0 13.226562 1.894531 8.648438 5.273438 5.273438 C 8.648438 1.894531 13.226562 0 18 0 " clip-rule="nonzero"/></clipPath></defs><g clip-path="url(#26b78bc7dd)"><path fill="#563d7c" d="M 0 0 L 383.398438 0 L 383.398438 383.398438 L 0 383.398438 Z M 0 0 " fill-opacity="1" fill-rule="nonzero"/></g><g fill="#ffffff" fill-opacity="1"><g transform="translate(116.921775, 290.502624)"><g><path d="M 140.390625 0 L 7.640625 0 L 7.640625 -32.53125 L 52.296875 -77.703125 C 65.066406 -91.046875 73.410156 -100.15625 77.328125 -105.03125 C 81.253906 -109.914062 83.988281 -114.109375 85.53125 -117.609375 C 87.070312 -121.117188 87.84375 -124.796875 87.84375 -128.640625 C 87.84375 -133.390625 86.296875 -137.140625 83.203125 -139.890625 C 80.117188 -142.648438 75.785156 -144.03125 70.203125 -144.03125 C 64.441406 -144.03125 58.617188 -142.378906 52.734375 -139.078125 C 46.859375 -135.785156 40.207031 -130.925781 32.78125 -124.5 L 5.625 -156.28125 C 15.050781 -164.707031 22.976562 -170.734375 29.40625 -174.359375 C 35.832031 -177.992188 42.816406 -180.769531 50.359375 -182.6875 C 57.910156 -184.601562 66.398438 -185.5625 75.828125 -185.5625 C 87.671875 -185.5625 98.242188 -183.472656 107.546875 -179.296875 C 116.847656 -175.128906 124.0625 -169.1875 129.1875 -161.46875 C 134.320312 -153.757812 136.890625 -145.109375 136.890625 -135.515625 C 136.890625 -128.335938 135.992188 -121.703125 134.203125 -115.609375 C 132.410156 -109.523438 129.632812 -103.539062 125.875 -97.65625 C 122.125 -91.78125 117.140625 -85.585938 110.921875 -79.078125 C 104.710938 -72.578125 91.472656 -60.234375 71.203125 -42.046875 L 71.203125 -40.796875 L 140.390625 -40.796875 Z M 140.390625 0 "/></g></g></g></svg>