<svg xmlns="http://www.w3.org/2000/svg" xmlns:xlink="http://www.w3.org/1999/xlink" width="512" zoomAndPan="magnify" viewBox="0 0 384 383.999986" height="512" preserveAspectRatio="xMidYMid meet" version="1.0"><defs><clipPath id="ae732e6dd6"><path d="M 18 0 L 366 0 C 370.773438 0 375.351562 1.894531 378.726562 5.273438 C 382.105469 8.648438 384 13.226562 384 18 L 384 366 C 384 375.941406 375.941406 384 366 384 L 18 384 C 13.226562 384 8.648438 382.105469 5.273438 378.726562 C 1.894531 375.351562 0 370.773438 0 366 L 0 18 C 0 8.058594 8.058594 0 18 0 " clip-rule="nonzero"/></clipPath><clipPath id="bebd238c0d"><path d="M 38.398438 103.296875 L 345.898438 103.296875 L 345.898438 281 L 38.398438 281 Z M 38.398438 103.296875 " clip-rule="nonzero"/></clipPath></defs><g clip-path="url(#ae732e6dd6)"><path fill="#563d7c" d="M 0 0 L 383.398438 0 L 383.398438 383.398438 L 0 383.398438 Z M 0 0 " fill-opacity="1" fill-rule="nonzero"/></g><g clip-path="url(#bebd238c0d)"><path fill="#ffffff" d="M 144.617188 225.242188 L 104.367188 218.703125 L 129.734375 185.910156 C 142.882812 197.320312 144.519531 211.015625 144.617188 225.242188 Z M 155.6875 227.640625 C 155.753906 226.21875 155.984375 223.933594 155.984375 222.335938 C 155.984375 206.105469 150.707031 190.335938 136.394531 177.230469 L 151.300781 159.460938 L 174.378906 229.527344 L 155.691406 227.640625 Z M 244.265625 157.90625 L 242.988281 154.007812 L 160.792969 153.898438 L 182.65625 219.871094 L 183.601562 212.988281 L 181.085938 212.988281 L 181.398438 208.609375 L 192.402344 208.609375 L 192.085938 212.675781 L 189.257812 212.675781 L 188.628906 220.183594 C 188.628906 220.183594 243.949219 158.214844 244.265625 157.902344 Z M 280.667969 221.277344 C 269.632812 212.550781 261.039062 204.234375 254.84375 187.59375 C 245.066406 196.421875 239.484375 209.191406 239.484375 222.332031 C 239.484375 248.429688 260.871094 269.710938 287.09375 269.710938 C 313.3125 269.710938 334.695312 248.429688 334.695312 222.332031 C 334.695312 196.238281 313.3125 174.953125 287.09375 174.953125 C 278.722656 174.953125 270.167969 177.359375 263.273438 181.410156 C 267.941406 196.09375 272.484375 203.667969 286.847656 215.175781 C 290.335938 215.324219 292.988281 218.109375 292.988281 221.433594 C 292.988281 224.882812 290.164062 227.691406 286.703125 227.691406 C 283.238281 227.691406 280.667969 224.878906 280.667969 221.277344 Z M 142.9375 235.308594 C 137.550781 255.277344 118.398438 269.714844 97.199219 269.714844 C 70.976562 269.714844 49.589844 248.429688 49.589844 222.332031 C 49.589844 196.238281 70.976562 174.953125 97.199219 174.953125 C 105.566406 174.953125 115.25 176.917969 122.3125 181.03125 L 96.472656 215.175781 C 93.3125 215.226562 90.5625 218.039062 90.5625 221.433594 C 90.5625 224.882812 93.386719 227.691406 96.847656 227.691406 C 97.808594 227.691406 98.8125 227.445312 99.664062 227.046875 Z M 259.878906 170.441406 L 243.015625 124.140625 L 248.359375 115.066406 L 237.671875 103.492188 L 214.726562 103.492188 L 214.410156 110.0625 L 234.527344 110.0625 L 238.613281 114.441406 L 233.898438 122.886719 L 239.828125 143.800781 L 157.480469 143.800781 L 156.226562 139.976562 C 162.84375 139.121094 174.257812 135.0625 176.984375 132.707031 C 179.710938 130.347656 177.324219 128.179688 174.21875 128.078125 C 157.964844 127.390625 133.816406 126.035156 129.230469 126.015625 C 124.644531 125.996094 124.175781 128.292969 127.246094 131.632812 C 130.316406 134.976562 133 137.988281 144.632812 139.78125 L 147.773438 148.226562 L 128.289062 172.253906 C 119.105469 166.703125 107.996094 163.816406 97.203125 163.816406 C 64.820312 163.816406 38.410156 190.101562 38.410156 222.332031 C 38.410156 254.558594 64.820312 280.84375 97.203125 280.84375 C 123.84375 280.84375 147.265625 262.558594 154.152344 237.289062 L 172.058594 240.488281 C 172.824219 242.589844 174.609375 244.203125 176.746094 245.460938 L 173.550781 260.539062 L 169.464844 260.539062 L 169.152344 264.605469 L 182.039062 265.230469 L 182.039062 260.851562 L 178.894531 260.851562 L 182.785156 245.785156 C 188.582031 244.839844 191.617188 239.90625 189.890625 235.007812 L 248.382812 169.164062 L 251 176.230469 C 236.804688 187.359375 228.308594 204.5 228.308594 222.328125 C 228.308594 254.558594 254.71875 280.84375 287.101562 280.84375 C 319.480469 280.84375 345.890625 254.558594 345.890625 222.328125 C 345.890625 190.101562 319.480469 163.816406 287.101562 163.816406 C 277.683594 163.816406 268.039062 166.101562 259.882812 170.441406 Z M 259.878906 170.441406 " fill-opacity="1" fill-rule="evenodd"/></g></svg>