<svg xmlns="http://www.w3.org/2000/svg" xmlns:xlink="http://www.w3.org/1999/xlink" width="512" zoomAndPan="magnify" viewBox="0 0 384 383.999986" height="512" preserveAspectRatio="xMidYMid meet" version="1.0"><defs><clipPath id="2eef32ad06"><path d="M 18 0 L 366 0 C 370.773438 0 375.351562 1.894531 378.726562 5.273438 C 382.105469 8.648438 384 13.226562 384 18 L 384 366 C 384 375.941406 375.941406 384 366 384 L 18 384 C 13.226562 384 8.648438 382.105469 5.273438 378.726562 C 1.894531 375.351562 0 370.773438 0 366 L 0 18 C 0 13.226562 1.894531 8.648438 5.273438 5.273438 C 8.648438 1.894531 13.226562 0 18 0 " clip-rule="nonzero"/></clipPath><clipPath id="be59bf325e"><path d="M 46.078125 170 L 244 170 L 244 345.898438 L 46.078125 345.898438 Z M 46.078125 170 " clip-rule="nonzero"/></clipPath><clipPath id="123068a9c0"><path d="M 85 38.398438 L 344 38.398438 L 344 316 L 85 316 Z M 85 38.398438 " clip-rule="nonzero"/></clipPath></defs><g clip-path="url(#2eef32ad06)"><path fill="#563d7c" d="M 0 0 L 383.398438 0 L 383.398438 383.398438 L 0 383.398438 Z M 0 0 " fill-opacity="1" fill-rule="nonzero"/></g><g clip-path="url(#be59bf325e)"><path fill="#ffffff" d="M 84.753906 170.445312 C 79.878906 170.382812 75.226562 172.472656 72.03125 176.164062 C 66.6875 182.164062 62.046875 188.800781 58.222656 195.960938 C 50.574219 210.273438 46.222656 226.679688 46.222656 243.980469 C 46.222656 300.074219 91.988281 345.929688 147.980469 345.929688 C 175.972656 345.929688 201.53125 334.496094 219.929688 316.066406 C 229.125 306.847656 236.566406 295.867188 241.722656 283.660156 C 244.179688 278.175781 243.488281 271.785156 239.90625 266.960938 C 236.324219 262.136719 230.414062 259.632812 224.464844 260.417969 C 218.515625 261.203125 213.453125 265.148438 211.238281 270.738281 C 207.769531 278.953125 202.738281 286.371094 196.515625 292.605469 C 184.066406 305.078125 167.019531 312.765625 147.980469 312.765625 C 109.902344 312.765625 79.328125 282.132812 79.328125 243.980469 C 79.328125 232.21875 82.238281 221.257812 87.394531 211.609375 C 89.972656 206.785156 93.125 202.300781 96.738281 198.238281 C 101.152344 193.421875 102.324219 186.453125 99.738281 180.453125 C 97.148438 174.449219 91.28125 170.53125 84.757812 170.445312 Z M 84.753906 170.445312 " fill-opacity="1" fill-rule="evenodd"/></g><g clip-path="url(#123068a9c0)"><path fill="#ffffff" d="M 119.546875 38.421875 C 100.730469 38.421875 85.460938 53.722656 85.460938 72.570312 C 85.453125 74.3125 85.609375 76.050781 85.855469 77.769531 C 85.859375 77.78125 85.855469 77.792969 85.855469 77.804688 L 106.40625 204.753906 C 107.703125 212.742188 114.570312 218.628906 122.648438 218.675781 L 230.371094 219.347656 L 267.59375 305.90625 C 271.050781 313.921875 280.121094 317.882812 288.335938 314.957031 L 332.058594 299.375 C 340.671875 296.304688 345.175781 286.808594 342.113281 278.179688 C 339.046875 269.550781 329.570312 265.054688 320.957031 268.128906 L 291.855469 278.507812 L 256.511719 196.269531 C 253.90625 190.222656 247.980469 186.289062 241.40625 186.25 L 136.855469 185.59375 L 135.234375 175.625 L 209.183594 175.625 C 215.152344 175.710938 220.707031 172.570312 223.714844 167.40625 C 226.726562 162.238281 226.726562 155.847656 223.714844 150.683594 C 220.707031 145.519531 215.152344 142.375 209.183594 142.460938 L 129.875 142.460938 L 124.027344 106.410156 C 140.722656 104.207031 153.613281 89.898438 153.613281 72.570312 C 153.613281 53.722656 138.359375 38.421875 119.546875 38.421875 Z M 119.546875 38.421875 " fill-opacity="1" fill-rule="evenodd"/></g></svg>