<svg xmlns="http://www.w3.org/2000/svg" xmlns:xlink="http://www.w3.org/1999/xlink" width="512" zoomAndPan="magnify" viewBox="0 0 384 383.999986" height="512" preserveAspectRatio="xMidYMid meet" version="1.0"><defs><clipPath id="4003e59430"><path d="M 18 0 L 366 0 C 370.773438 0 375.351562 1.898438 378.726562 5.273438 C 382.105469 8.648438 384 13.226562 384 18 L 384 366 C 384 375.941406 375.941406 384 366 384 L 18 384 C 13.226562 384 8.648438 382.105469 5.273438 378.726562 C 1.894531 375.351562 0 370.773438 0 366 L 0 18 C 0 13.226562 1.894531 8.648438 5.273438 5.273438 C 8.648438 1.898438 13.226562 0 18 0 " clip-rule="nonzero"/></clipPath><clipPath id="7bc10e0aee"><path d="M 58.082031 172 L 235 172 L 235 329.148438 L 58.082031 329.148438 Z M 58.082031 172 " clip-rule="nonzero"/></clipPath><clipPath id="7c4444a72c"><path d="M 93 54.648438 L 324 54.648438 L 324 303 L 93 303 Z M 93 54.648438 " clip-rule="nonzero"/></clipPath></defs><g clip-path="url(#4003e59430)"><path fill="#563d7c" d="M 0 0 L 383.398438 0 L 383.398438 383.398438 L 0 383.398438 Z M 0 0 " fill-opacity="1" fill-rule="nonzero"/></g><g clip-path="url(#7bc10e0aee)"><path fill="#ffffff" d="M 92.683594 172.523438 C 88.324219 172.464844 84.15625 174.332031 81.300781 177.628906 C 76.519531 182.984375 72.367188 188.910156 68.945312 195.300781 C 62.101562 208.074219 58.207031 222.722656 58.207031 238.167969 C 58.207031 288.242188 99.15625 329.175781 149.253906 329.175781 C 174.304688 329.175781 197.167969 318.96875 213.632812 302.515625 C 221.863281 294.289062 228.515625 284.484375 233.128906 273.585938 C 235.332031 268.691406 234.710938 262.988281 231.503906 258.683594 C 228.300781 254.375 223.015625 252.140625 217.691406 252.839844 C 212.367188 253.539062 207.839844 257.066406 205.855469 262.054688 C 202.75 269.386719 198.25 276.007812 192.683594 281.574219 C 181.542969 292.707031 166.292969 299.570312 149.257812 299.570312 C 115.1875 299.570312 87.828125 272.222656 87.828125 238.167969 C 87.828125 227.667969 90.433594 217.882812 95.046875 209.269531 C 97.355469 204.960938 100.175781 200.960938 103.410156 197.335938 C 107.355469 193.03125 108.40625 186.816406 106.089844 181.457031 C 103.773438 176.097656 98.527344 172.601562 92.6875 172.523438 Z M 92.683594 172.523438 " fill-opacity="1" fill-rule="evenodd"/></g><g clip-path="url(#7c4444a72c)"><path fill="#ffffff" d="M 123.8125 54.667969 C 106.980469 54.667969 93.316406 68.328125 93.316406 85.152344 C 93.308594 86.707031 93.449219 88.257812 93.671875 89.792969 C 93.671875 89.804688 93.667969 89.816406 93.671875 89.824219 L 112.058594 203.148438 C 113.21875 210.28125 119.363281 215.535156 126.589844 215.578125 L 222.976562 216.179688 L 256.28125 293.445312 C 259.375 300.605469 267.488281 304.136719 274.839844 301.527344 L 313.960938 287.617188 C 321.667969 284.875 325.699219 276.398438 322.953125 268.695312 C 320.210938 260.992188 311.734375 256.980469 304.027344 259.722656 L 277.988281 268.988281 L 246.363281 195.574219 C 244.035156 190.175781 238.730469 186.667969 232.847656 186.632812 L 139.304688 186.046875 L 137.851562 177.148438 L 204.015625 177.148438 C 209.355469 177.222656 214.328125 174.421875 217.019531 169.808594 C 219.714844 165.199219 219.714844 159.492188 217.019531 154.882812 C 214.328125 150.269531 209.355469 147.46875 204.015625 147.542969 L 133.054688 147.542969 L 127.824219 115.359375 C 142.765625 113.394531 154.296875 100.621094 154.296875 85.152344 C 154.296875 68.328125 140.648438 54.667969 123.8125 54.667969 Z M 123.8125 54.667969 " fill-opacity="1" fill-rule="evenodd"/></g><path stroke-linecap="butt" transform="matrix(0.00424647, 0.750044, -0.749988, 0.00424615, 42.524344, 38.37738)" fill="none" stroke-linejoin="miter" d="M 0.00213924 5.501309 L 414.972328 5.501896 " stroke="#ffffff" stroke-width="11" stroke-opacity="1" stroke-miterlimit="4"/><path stroke-linecap="butt" transform="matrix(-0.749174, -0.000000000000000092, 0.000000000000000092, -0.75, 345.589257, 342.364074)" fill="none" stroke-linejoin="miter" d="M -0.000783676 5.501058 L 425.483657 5.501058 " stroke="#ffffff" stroke-width="11" stroke-opacity="1" stroke-miterlimit="4"/><path stroke-linecap="butt" transform="matrix(0.000000000000000044, -0.726172, 0.75, 0.000000000000000046, 318.416788, 62.395658)" fill="none" stroke-linejoin="miter" d="M 0.00155199 5.001575 L -17.168957 5.001575 " stroke="#ffffff" stroke-width="10" stroke-opacity="1" stroke-miterlimit="4"/><path stroke-linecap="round" transform="matrix(0.000000000000000445, -7.261724, 7.499999, 0.000000000000000459, 322.166787, 54.89402)" fill-opacity="1" fill="#ffffff" fill-rule="nonzero" stroke-linejoin="round" d="M -2.4998 -1.499843 L -0.499801 0.000157527 L -2.4998 1.500158 Z M -2.4998 -1.499843 " stroke="#ffffff" stroke-width="1" stroke-opacity="1" stroke-miterlimit="4"/><path stroke-linecap="butt" transform="matrix(0.000000000000000044, 0.726172, -0.75, 0.000000000000000046, 325.916787, 97.60757)" fill="none" stroke-linejoin="miter" d="M 0.00248581 4.998425 L -17.168023 4.998425 " stroke="#ffffff" stroke-width="10" stroke-opacity="1" stroke-miterlimit="4"/><path stroke-linecap="round" transform="matrix(0.000000000000000445, 7.261724, -7.499999, 0.000000000000000459, 322.166787, 105.109211)" fill-opacity="1" fill="#ffffff" fill-rule="nonzero" stroke-linejoin="round" d="M -2.500244 -1.500158 L -0.500246 -0.000157527 L -2.500244 1.499843 Z M -2.500244 -1.500158 " stroke="#ffffff" stroke-width="1" stroke-opacity="1" stroke-miterlimit="4"/></svg>