<svg xmlns="http://www.w3.org/2000/svg" xmlns:xlink="http://www.w3.org/1999/xlink" width="512" zoomAndPan="magnify" viewBox="0 0 384 383.999986" height="512" preserveAspectRatio="xMidYMid meet" version="1.0"><defs><g/><clipPath id="ac51907afe"><path d="M 18 0 L 366 0 C 370.773438 0 375.351562 1.894531 378.726562 5.273438 C 382.105469 8.648438 384 13.226562 384 18 L 384 366 C 384 375.941406 375.941406 384 366 384 L 18 384 C 13.226562 384 8.648438 382.105469 5.273438 378.726562 C 1.894531 375.351562 0 370.773438 0 366 L 0 18 C 0 13.226562 1.894531 8.648438 5.273438 5.273438 C 8.648438 1.894531 13.226562 0 18 0 " clip-rule="nonzero"/></clipPath><clipPath id="9fa2f55a6c"><path d="M 51.496094 72.644531 L 166.695312 72.644531 L 166.695312 166.246094 L 51.496094 166.246094 Z M 51.496094 72.644531 " clip-rule="nonzero"/></clipPath><clipPath id="9e955914eb"><path d="M 54.195312 103.859375 C 52.566406 108.660156 51.496094 114.117188 51.496094 119.46875 C 51.496094 124.824219 52.414062 129.976562 54.042969 134.722656 C 54.09375 134.824219 54.09375 134.925781 54.144531 135.027344 C 60.671875 152.859375 77.910156 165.992188 98.054688 166.246094 L 166.695312 166.246094 L 166.695312 72.644531 L 98.105469 72.644531 C 77.808594 72.898438 60.570312 85.828125 54.195312 103.859375 " clip-rule="nonzero"/></clipPath><clipPath id="35ef59b62e"><path d="M 51.496094 197.230469 L 166.695312 197.230469 L 166.695312 290.832031 L 51.496094 290.832031 Z M 51.496094 197.230469 " clip-rule="nonzero"/></clipPath><clipPath id="934d346b91"><path d="M 54.195312 228.449219 C 52.566406 233.246094 51.496094 238.703125 51.496094 244.058594 C 51.496094 249.410156 52.414062 254.5625 54.042969 259.3125 C 54.09375 259.414062 54.09375 259.515625 54.144531 259.613281 C 60.671875 277.445312 77.910156 290.578125 98.054688 290.832031 L 166.695312 290.832031 L 166.695312 197.230469 L 98.105469 197.230469 C 77.808594 197.484375 60.570312 210.414062 54.195312 228.449219 " clip-rule="nonzero"/></clipPath><clipPath id="47fe6fb014"><path d="M 215.511719 197.230469 L 330.710938 197.230469 L 330.710938 290.832031 L 215.511719 290.832031 Z M 215.511719 197.230469 " clip-rule="nonzero"/></clipPath><clipPath id="664032275e"><path d="M 218.214844 228.449219 C 216.582031 233.246094 215.511719 238.703125 215.511719 244.058594 C 215.511719 249.410156 216.429688 254.5625 218.0625 259.3125 C 218.113281 259.414062 218.113281 259.515625 218.164062 259.613281 C 224.691406 277.445312 241.929688 290.578125 262.070312 290.832031 L 330.710938 290.832031 L 330.710938 197.230469 L 262.121094 197.230469 C 241.828125 197.484375 224.589844 210.414062 218.214844 228.449219 " clip-rule="nonzero"/></clipPath><clipPath id="750ad68a7c"><path d="M 215.511719 72.644531 L 330.710938 72.644531 L 330.710938 166.246094 L 215.511719 166.246094 Z M 215.511719 72.644531 " clip-rule="nonzero"/></clipPath><clipPath id="ecd966e783"><path d="M 218.214844 103.859375 C 216.582031 108.660156 215.511719 114.117188 215.511719 119.46875 C 215.511719 124.824219 216.429688 129.976562 218.0625 134.722656 C 218.113281 134.824219 218.113281 134.925781 218.164062 135.027344 C 224.691406 152.859375 241.929688 165.992188 262.070312 166.246094 L 330.710938 166.246094 L 330.710938 72.644531 L 262.121094 72.644531 C 241.828125 72.898438 224.589844 85.828125 218.214844 103.859375 " clip-rule="nonzero"/></clipPath><clipPath id="a0dce5973d"><path d="M 47.332031 72.492188 L 141.082031 72.492188 L 141.082031 166.242188 L 47.332031 166.242188 Z M 47.332031 72.492188 " clip-rule="nonzero"/></clipPath><clipPath id="1ddd310b20"><path d="M 215.515625 72.242188 L 309.265625 72.242188 L 309.265625 165.992188 L 215.515625 165.992188 Z M 215.515625 72.242188 " clip-rule="nonzero"/></clipPath><clipPath id="24f16ed77c"><path d="M 51.496094 197.082031 L 145.246094 197.082031 L 145.246094 290.832031 L 51.496094 290.832031 Z M 51.496094 197.082031 " clip-rule="nonzero"/></clipPath><clipPath id="dbeb70630e"><path d="M 209.359375 196.832031 L 303.109375 196.832031 L 303.109375 290.582031 L 209.359375 290.582031 Z M 209.359375 196.832031 " clip-rule="nonzero"/></clipPath></defs><g clip-path="url(#ac51907afe)"><path fill="#24660c" d="M 0 0 L 383.398438 0 L 383.398438 383.398438 L 0 383.398438 Z M 0 0 " fill-opacity="1" fill-rule="nonzero"/></g><g clip-path="url(#9fa2f55a6c)"><g clip-path="url(#9e955914eb)"><path fill="#004aad" d="M 166.695312 72.644531 L 166.695312 166.246094 L 51.496094 166.246094 L 51.496094 72.644531 Z M 166.695312 72.644531 " fill-opacity="1" fill-rule="nonzero"/></g></g><g clip-path="url(#35ef59b62e)"><g clip-path="url(#934d346b91)"><path fill="#004aad" d="M 166.695312 197.230469 L 166.695312 290.832031 L 51.496094 290.832031 L 51.496094 197.230469 Z M 166.695312 197.230469 " fill-opacity="1" fill-rule="nonzero"/></g></g><g clip-path="url(#47fe6fb014)"><g clip-path="url(#664032275e)"><path fill="#004aad" d="M 330.710938 197.230469 L 330.710938 290.832031 L 215.511719 290.832031 L 215.511719 197.230469 Z M 330.710938 197.230469 " fill-opacity="1" fill-rule="nonzero"/></g></g><g clip-path="url(#750ad68a7c)"><g clip-path="url(#ecd966e783)"><path fill="#004aad" d="M 330.710938 72.644531 L 330.710938 166.246094 L 215.511719 166.246094 L 215.511719 72.644531 Z M 330.710938 72.644531 " fill-opacity="1" fill-rule="nonzero"/></g></g><g clip-path="url(#a0dce5973d)"><path fill="#ffffff" d="M 47.332031 119.367188 C 47.332031 120.902344 47.410156 122.433594 47.5625 123.960938 C 47.710938 125.488281 47.9375 127.003906 48.238281 128.507812 C 48.539062 130.015625 48.914062 131.5 49.359375 132.96875 C 49.808594 134.4375 50.324219 135.882812 50.914062 137.296875 C 51.5 138.714844 52.15625 140.101562 52.878906 141.453125 C 53.605469 142.808594 54.394531 144.121094 55.246094 145.398438 C 56.097656 146.675781 57.011719 147.90625 57.984375 149.089844 C 58.960938 150.277344 59.988281 151.414062 61.074219 152.5 C 62.160156 153.585938 63.296875 154.613281 64.480469 155.585938 C 65.667969 156.5625 66.898438 157.472656 68.175781 158.328125 C 69.449219 159.179688 70.765625 159.96875 72.117188 160.691406 C 73.472656 161.417969 74.855469 162.074219 76.273438 162.660156 C 77.691406 163.25 79.136719 163.765625 80.605469 164.214844 C 82.070312 164.660156 83.558594 165.035156 85.0625 165.335938 C 86.570312 165.632812 88.085938 165.859375 89.613281 166.011719 C 91.140625 166.164062 92.671875 166.242188 94.207031 166.242188 L 141.082031 166.242188 L 141.082031 159.679688 L 94.207031 159.679688 C 92.882812 159.679688 91.566406 159.617188 90.25 159.488281 C 88.9375 159.355469 87.632812 159.164062 86.335938 158.90625 C 85.039062 158.648438 83.761719 158.328125 82.496094 157.945312 C 81.230469 157.558594 79.988281 157.117188 78.769531 156.609375 C 77.550781 156.105469 76.355469 155.539062 75.191406 154.917969 C 74.027344 154.296875 72.894531 153.617188 71.796875 152.882812 C 70.699219 152.148438 69.636719 151.363281 68.617188 150.523438 C 67.59375 149.6875 66.617188 148.800781 65.683594 147.867188 C 64.75 146.933594 63.863281 145.953125 63.023438 144.933594 C 62.1875 143.914062 61.402344 142.851562 60.667969 141.753906 C 59.933594 140.65625 59.253906 139.523438 58.632812 138.359375 C 58.007812 137.195312 57.445312 136 56.941406 134.78125 C 56.433594 133.558594 55.988281 132.316406 55.605469 131.054688 C 55.222656 129.789062 54.902344 128.507812 54.644531 127.214844 C 54.386719 125.917969 54.191406 124.613281 54.0625 123.296875 C 53.933594 121.984375 53.871094 120.664062 53.871094 119.34375 C 53.871094 118.023438 53.933594 116.707031 54.0625 115.390625 C 54.191406 114.078125 54.386719 112.769531 54.644531 111.476562 C 54.902344 110.179688 55.222656 108.898438 55.605469 107.636719 C 55.988281 106.371094 56.433594 105.128906 56.941406 103.910156 C 57.445312 102.6875 58.007812 101.496094 58.632812 100.332031 C 59.253906 99.164062 59.933594 98.035156 60.667969 96.933594 C 61.402344 95.835938 62.1875 94.777344 63.023438 93.757812 C 63.863281 92.734375 64.75 91.757812 65.683594 90.824219 C 66.617188 89.890625 67.59375 89.003906 68.617188 88.164062 C 69.636719 87.328125 70.699219 86.539062 71.796875 85.808594 C 72.894531 85.074219 74.027344 84.394531 75.191406 83.773438 C 76.355469 83.148438 77.550781 82.585938 78.769531 82.078125 C 79.988281 81.574219 81.230469 81.128906 82.496094 80.746094 C 83.761719 80.363281 85.039062 80.042969 86.335938 79.785156 C 87.632812 79.527344 88.9375 79.332031 90.25 79.203125 C 91.566406 79.074219 92.882812 79.007812 94.207031 79.007812 L 141.082031 79.007812 L 141.082031 72.492188 L 94.207031 72.492188 C 92.671875 72.496094 91.140625 72.570312 89.613281 72.722656 C 88.085938 72.875 86.570312 73.101562 85.0625 73.402344 C 83.558594 73.703125 82.070312 74.078125 80.605469 74.523438 C 79.136719 74.96875 77.691406 75.488281 76.273438 76.074219 C 74.855469 76.664062 73.472656 77.320312 72.117188 78.042969 C 70.765625 78.765625 69.449219 79.554688 68.175781 80.410156 C 66.898438 81.261719 65.667969 82.175781 64.480469 83.148438 C 63.296875 84.121094 62.160156 85.152344 61.074219 86.238281 C 59.988281 87.324219 58.960938 88.457031 57.984375 89.644531 C 57.011719 90.832031 56.097656 92.0625 55.246094 93.339844 C 54.394531 94.613281 53.605469 95.929688 52.878906 97.28125 C 52.15625 98.636719 51.5 100.019531 50.914062 101.4375 C 50.324219 102.855469 49.808594 104.296875 49.359375 105.765625 C 48.914062 107.234375 48.539062 108.722656 48.238281 110.226562 C 47.9375 111.730469 47.710938 113.25 47.5625 114.773438 C 47.410156 116.300781 47.332031 117.832031 47.332031 119.367188 Z M 47.332031 119.367188 " fill-opacity="1" fill-rule="nonzero"/></g><g fill="#ffffff" fill-opacity="1"><g transform="translate(98.458593, 129.695608)"><g><path d="M 15.8125 0 L 1.171875 0 L 1.171875 -3.078125 L 6.4375 -8.390625 C 7.988281 -9.984375 9.003906 -11.085938 9.484375 -11.703125 C 9.960938 -12.316406 10.304688 -12.882812 10.515625 -13.40625 C 10.722656 -13.9375 10.828125 -14.484375 10.828125 -15.046875 C 10.828125 -15.890625 10.59375 -16.515625 10.125 -16.921875 C 9.664062 -17.335938 9.050781 -17.546875 8.28125 -17.546875 C 7.46875 -17.546875 6.675781 -17.359375 5.90625 -16.984375 C 5.144531 -16.609375 4.347656 -16.078125 3.515625 -15.390625 L 1.109375 -18.25 C 2.140625 -19.125 2.992188 -19.742188 3.671875 -20.109375 C 4.359375 -20.472656 5.101562 -20.75 5.90625 -20.9375 C 6.707031 -21.132812 7.601562 -21.234375 8.59375 -21.234375 C 9.894531 -21.234375 11.046875 -20.992188 12.046875 -20.515625 C 13.054688 -20.046875 13.835938 -19.378906 14.390625 -18.515625 C 14.941406 -17.660156 15.21875 -16.675781 15.21875 -15.5625 C 15.21875 -14.601562 15.046875 -13.695312 14.703125 -12.84375 C 14.367188 -12 13.847656 -11.132812 13.140625 -10.25 C 12.429688 -9.363281 11.175781 -8.097656 9.375 -6.453125 L 6.6875 -3.921875 L 6.6875 -3.71875 L 15.8125 -3.71875 Z M 15.8125 0 "/></g></g></g><g fill="#ffffff" fill-opacity="1"><g transform="translate(115.201344, 129.695608)"><g><path d="M 8.796875 -13.375 C 10.816406 -13.375 12.425781 -12.804688 13.625 -11.671875 C 14.820312 -10.535156 15.421875 -8.976562 15.421875 -7 C 15.421875 -4.664062 14.695312 -2.867188 13.25 -1.609375 C 11.8125 -0.347656 9.753906 0.28125 7.078125 0.28125 C 4.742188 0.28125 2.863281 -0.09375 1.4375 -0.84375 L 1.4375 -4.671875 C 2.1875 -4.265625 3.0625 -3.9375 4.0625 -3.6875 C 5.070312 -3.4375 6.023438 -3.3125 6.921875 -3.3125 C 9.617188 -3.3125 10.96875 -4.414062 10.96875 -6.625 C 10.96875 -8.738281 9.570312 -9.796875 6.78125 -9.796875 C 6.269531 -9.796875 5.707031 -9.742188 5.09375 -9.640625 C 4.488281 -9.546875 3.992188 -9.441406 3.609375 -9.328125 L 1.84375 -10.265625 L 2.640625 -20.9375 L 13.984375 -20.9375 L 13.984375 -17.1875 L 6.515625 -17.1875 L 6.125 -13.078125 L 6.625 -13.171875 C 7.207031 -13.304688 7.929688 -13.375 8.796875 -13.375 Z M 8.796875 -13.375 "/></g></g></g><g fill="#ffffff" fill-opacity="1"><g transform="translate(261.137653, 129.695608)"><g><path d="M 15.8125 0 L 1.171875 0 L 1.171875 -3.078125 L 6.4375 -8.390625 C 7.988281 -9.984375 9.003906 -11.085938 9.484375 -11.703125 C 9.960938 -12.316406 10.304688 -12.882812 10.515625 -13.40625 C 10.722656 -13.9375 10.828125 -14.484375 10.828125 -15.046875 C 10.828125 -15.890625 10.59375 -16.515625 10.125 -16.921875 C 9.664062 -17.335938 9.050781 -17.546875 8.28125 -17.546875 C 7.46875 -17.546875 6.675781 -17.359375 5.90625 -16.984375 C 5.144531 -16.609375 4.347656 -16.078125 3.515625 -15.390625 L 1.109375 -18.25 C 2.140625 -19.125 2.992188 -19.742188 3.671875 -20.109375 C 4.359375 -20.472656 5.101562 -20.75 5.90625 -20.9375 C 6.707031 -21.132812 7.601562 -21.234375 8.59375 -21.234375 C 9.894531 -21.234375 11.046875 -20.992188 12.046875 -20.515625 C 13.054688 -20.046875 13.835938 -19.378906 14.390625 -18.515625 C 14.941406 -17.660156 15.21875 -16.675781 15.21875 -15.5625 C 15.21875 -14.601562 15.046875 -13.695312 14.703125 -12.84375 C 14.367188 -12 13.847656 -11.132812 13.140625 -10.25 C 12.429688 -9.363281 11.175781 -8.097656 9.375 -6.453125 L 6.6875 -3.921875 L 6.6875 -3.71875 L 15.8125 -3.71875 Z M 15.8125 0 "/></g></g></g><g fill="#ffffff" fill-opacity="1"><g transform="translate(277.880404, 129.695608)"><g><path d="M 1.03125 -8.890625 C 1.03125 -13.035156 1.90625 -16.117188 3.65625 -18.140625 C 5.40625 -20.171875 8.03125 -21.1875 11.53125 -21.1875 C 12.71875 -21.1875 13.648438 -21.113281 14.328125 -20.96875 L 14.328125 -17.421875 C 13.484375 -17.617188 12.644531 -17.71875 11.8125 -17.71875 C 10.289062 -17.71875 9.050781 -17.488281 8.09375 -17.03125 C 7.132812 -16.570312 6.414062 -15.890625 5.9375 -14.984375 C 5.46875 -14.085938 5.1875 -12.816406 5.09375 -11.171875 L 5.28125 -11.171875 C 6.226562 -12.796875 7.742188 -13.609375 9.828125 -13.609375 C 11.691406 -13.609375 13.15625 -13.019531 14.21875 -11.84375 C 15.28125 -10.664062 15.8125 -9.039062 15.8125 -6.96875 C 15.8125 -4.738281 15.179688 -2.972656 13.921875 -1.671875 C 12.660156 -0.367188 10.910156 0.28125 8.671875 0.28125 C 7.128906 0.28125 5.78125 -0.0703125 4.625 -0.78125 C 3.476562 -1.5 2.59375 -2.546875 1.96875 -3.921875 C 1.34375 -5.296875 1.03125 -6.953125 1.03125 -8.890625 Z M 8.59375 -3.25 C 9.539062 -3.25 10.265625 -3.566406 10.765625 -4.203125 C 11.273438 -4.835938 11.53125 -5.742188 11.53125 -6.921875 C 11.53125 -7.941406 11.289062 -8.742188 10.8125 -9.328125 C 10.34375 -9.910156 9.628906 -10.203125 8.671875 -10.203125 C 7.773438 -10.203125 7.007812 -9.910156 6.375 -9.328125 C 5.738281 -8.753906 5.421875 -8.078125 5.421875 -7.296875 C 5.421875 -6.160156 5.71875 -5.203125 6.3125 -4.421875 C 6.914062 -3.640625 7.675781 -3.25 8.59375 -3.25 Z M 8.59375 -3.25 "/></g></g></g><g fill="#ffffff" fill-opacity="1"><g transform="translate(98.458593, 254.282968)"><g><path d="M 15.8125 0 L 1.171875 0 L 1.171875 -3.078125 L 6.4375 -8.390625 C 7.988281 -9.984375 9.003906 -11.085938 9.484375 -11.703125 C 9.960938 -12.316406 10.304688 -12.882812 10.515625 -13.40625 C 10.722656 -13.9375 10.828125 -14.484375 10.828125 -15.046875 C 10.828125 -15.890625 10.59375 -16.515625 10.125 -16.921875 C 9.664062 -17.335938 9.050781 -17.546875 8.28125 -17.546875 C 7.46875 -17.546875 6.675781 -17.359375 5.90625 -16.984375 C 5.144531 -16.609375 4.347656 -16.078125 3.515625 -15.390625 L 1.109375 -18.25 C 2.140625 -19.125 2.992188 -19.742188 3.671875 -20.109375 C 4.359375 -20.472656 5.101562 -20.75 5.90625 -20.9375 C 6.707031 -21.132812 7.601562 -21.234375 8.59375 -21.234375 C 9.894531 -21.234375 11.046875 -20.992188 12.046875 -20.515625 C 13.054688 -20.046875 13.835938 -19.378906 14.390625 -18.515625 C 14.941406 -17.660156 15.21875 -16.675781 15.21875 -15.5625 C 15.21875 -14.601562 15.046875 -13.695312 14.703125 -12.84375 C 14.367188 -12 13.847656 -11.132812 13.140625 -10.25 C 12.429688 -9.363281 11.175781 -8.097656 9.375 -6.453125 L 6.6875 -3.921875 L 6.6875 -3.71875 L 15.8125 -3.71875 Z M 15.8125 0 "/></g></g></g><g fill="#ffffff" fill-opacity="1"><g transform="translate(115.201344, 254.282968)"><g><path d="M 3.25 0 L 11.109375 -17.1875 L 0.78125 -17.1875 L 0.78125 -20.90625 L 15.8125 -20.90625 L 15.8125 -18.125 L 7.890625 0 Z M 3.25 0 "/></g></g></g><g fill="#ffffff" fill-opacity="1"><g transform="translate(261.137653, 254.282968)"><g><path d="M 15.8125 0 L 1.171875 0 L 1.171875 -3.078125 L 6.4375 -8.390625 C 7.988281 -9.984375 9.003906 -11.085938 9.484375 -11.703125 C 9.960938 -12.316406 10.304688 -12.882812 10.515625 -13.40625 C 10.722656 -13.9375 10.828125 -14.484375 10.828125 -15.046875 C 10.828125 -15.890625 10.59375 -16.515625 10.125 -16.921875 C 9.664062 -17.335938 9.050781 -17.546875 8.28125 -17.546875 C 7.46875 -17.546875 6.675781 -17.359375 5.90625 -16.984375 C 5.144531 -16.609375 4.347656 -16.078125 3.515625 -15.390625 L 1.109375 -18.25 C 2.140625 -19.125 2.992188 -19.742188 3.671875 -20.109375 C 4.359375 -20.472656 5.101562 -20.75 5.90625 -20.9375 C 6.707031 -21.132812 7.601562 -21.234375 8.59375 -21.234375 C 9.894531 -21.234375 11.046875 -20.992188 12.046875 -20.515625 C 13.054688 -20.046875 13.835938 -19.378906 14.390625 -18.515625 C 14.941406 -17.660156 15.21875 -16.675781 15.21875 -15.5625 C 15.21875 -14.601562 15.046875 -13.695312 14.703125 -12.84375 C 14.367188 -12 13.847656 -11.132812 13.140625 -10.25 C 12.429688 -9.363281 11.175781 -8.097656 9.375 -6.453125 L 6.6875 -3.921875 L 6.6875 -3.71875 L 15.8125 -3.71875 Z M 15.8125 0 "/></g></g></g><g fill="#ffffff" fill-opacity="1"><g transform="translate(277.880404, 254.282968)"><g><path d="M 16.28125 -4.34375 L 13.765625 -4.34375 L 13.765625 0 L 9.4375 0 L 9.4375 -4.34375 L 0.5 -4.34375 L 0.5 -7.421875 L 9.6875 -20.9375 L 13.765625 -20.9375 L 13.765625 -7.78125 L 16.28125 -7.78125 Z M 9.4375 -7.78125 L 9.4375 -11.328125 C 9.4375 -11.921875 9.457031 -12.78125 9.5 -13.90625 C 9.550781 -15.03125 9.59375 -15.679688 9.625 -15.859375 L 9.515625 -15.859375 C 9.160156 -15.078125 8.734375 -14.316406 8.234375 -13.578125 L 4.390625 -7.78125 Z M 9.4375 -7.78125 "/></g></g></g><g clip-path="url(#1ddd310b20)"><path fill="#ffffff" d="M 215.515625 119.117188 C 215.519531 120.652344 215.59375 122.183594 215.746094 123.710938 C 215.898438 125.238281 216.125 126.753906 216.425781 128.257812 C 216.726562 129.765625 217.101562 131.25 217.546875 132.71875 C 217.992188 134.1875 218.511719 135.632812 219.097656 137.046875 C 219.6875 138.464844 220.34375 139.851562 221.066406 141.203125 C 221.789062 142.558594 222.578125 143.871094 223.433594 145.148438 C 224.285156 146.425781 225.199219 147.65625 226.171875 148.839844 C 227.144531 150.027344 228.175781 151.164062 229.261719 152.25 C 230.347656 153.335938 231.480469 154.363281 232.667969 155.335938 C 233.855469 156.3125 235.085938 157.222656 236.359375 158.078125 C 237.636719 158.929688 238.953125 159.71875 240.304688 160.441406 C 241.65625 161.167969 243.042969 161.824219 244.460938 162.410156 C 245.878906 163 247.320312 163.515625 248.789062 163.964844 C 250.257812 164.410156 251.746094 164.785156 253.25 165.085938 C 254.753906 165.382812 256.269531 165.609375 257.796875 165.761719 C 259.324219 165.914062 260.855469 165.992188 262.390625 165.992188 L 309.265625 165.992188 L 309.265625 159.429688 L 262.390625 159.429688 C 261.070312 159.429688 259.753906 159.367188 258.4375 159.238281 C 257.121094 159.105469 255.816406 158.914062 254.523438 158.65625 C 253.226562 158.398438 251.945312 158.078125 250.683594 157.695312 C 249.417969 157.308594 248.175781 156.867188 246.957031 156.359375 C 245.734375 155.855469 244.542969 155.289062 243.378906 154.667969 C 242.210938 154.046875 241.082031 153.367188 239.980469 152.632812 C 238.882812 151.898438 237.824219 151.113281 236.800781 150.273438 C 235.78125 149.4375 234.804688 148.550781 233.871094 147.617188 C 232.933594 146.683594 232.050781 145.703125 231.210938 144.683594 C 230.375 143.664062 229.585938 142.601562 228.851562 141.503906 C 228.121094 140.40625 227.441406 139.273438 226.816406 138.109375 C 226.195312 136.945312 225.632812 135.75 225.125 134.53125 C 224.621094 133.308594 224.175781 132.066406 223.792969 130.804688 C 223.410156 129.539062 223.089844 128.257812 222.832031 126.964844 C 222.574219 125.667969 222.378906 124.363281 222.25 123.046875 C 222.121094 121.734375 222.054688 120.414062 222.054688 119.09375 C 222.054688 117.773438 222.121094 116.457031 222.25 115.140625 C 222.378906 113.828125 222.574219 112.519531 222.832031 111.226562 C 223.089844 109.929688 223.410156 108.648438 223.792969 107.386719 C 224.175781 106.121094 224.621094 104.878906 225.125 103.660156 C 225.632812 102.4375 226.195312 101.246094 226.816406 100.082031 C 227.441406 98.914062 228.121094 97.785156 228.851562 96.683594 C 229.585938 95.585938 230.375 94.527344 231.210938 93.507812 C 232.050781 92.484375 232.933594 91.507812 233.871094 90.574219 C 234.804688 89.640625 235.78125 88.753906 236.800781 87.914062 C 237.824219 87.078125 238.882812 86.289062 239.980469 85.558594 C 241.082031 84.824219 242.210938 84.144531 243.378906 83.523438 C 244.542969 82.898438 245.734375 82.335938 246.957031 81.828125 C 248.175781 81.324219 249.417969 80.878906 250.683594 80.496094 C 251.945312 80.113281 253.226562 79.792969 254.523438 79.535156 C 255.816406 79.277344 257.121094 79.082031 258.4375 78.953125 C 259.753906 78.824219 261.070312 78.757812 262.390625 78.757812 L 309.265625 78.757812 L 309.265625 72.242188 L 262.390625 72.242188 C 260.855469 72.246094 259.324219 72.320312 257.796875 72.472656 C 256.269531 72.625 254.753906 72.851562 253.25 73.152344 C 251.746094 73.453125 250.257812 73.828125 248.789062 74.273438 C 247.320312 74.71875 245.878906 75.238281 244.460938 75.824219 C 243.042969 76.414062 241.65625 77.070312 240.304688 77.792969 C 238.953125 78.515625 237.636719 79.304688 236.359375 80.160156 C 235.085938 81.011719 233.855469 81.925781 232.667969 82.898438 C 231.480469 83.871094 230.347656 84.902344 229.261719 85.988281 C 228.175781 87.074219 227.144531 88.207031 226.171875 89.394531 C 225.199219 90.582031 224.285156 91.8125 223.433594 93.089844 C 222.578125 94.363281 221.789062 95.679688 221.066406 97.03125 C 220.34375 98.386719 219.6875 99.769531 219.097656 101.1875 C 218.511719 102.605469 217.992188 104.046875 217.546875 105.515625 C 217.101562 106.984375 216.726562 108.472656 216.425781 109.976562 C 216.125 111.480469 215.898438 113 215.746094 114.523438 C 215.59375 116.050781 215.519531 117.582031 215.515625 119.117188 Z M 215.515625 119.117188 " fill-opacity="1" fill-rule="nonzero"/></g><g clip-path="url(#24f16ed77c)"><path fill="#ffffff" d="M 51.496094 243.957031 C 51.5 245.492188 51.574219 247.019531 51.726562 248.546875 C 51.878906 250.074219 52.105469 251.59375 52.40625 253.097656 C 52.707031 254.601562 53.082031 256.089844 53.527344 257.558594 C 53.972656 259.023438 54.492188 260.46875 55.078125 261.886719 C 55.667969 263.304688 56.324219 264.6875 57.046875 266.042969 C 57.773438 267.394531 58.558594 268.710938 59.414062 269.984375 C 60.265625 271.261719 61.179688 272.492188 62.152344 273.679688 C 63.128906 274.863281 64.15625 276 65.242188 277.085938 C 66.328125 278.171875 67.464844 279.199219 68.648438 280.175781 C 69.835938 281.148438 71.066406 282.0625 72.34375 282.914062 C 73.617188 283.769531 74.933594 284.554688 76.285156 285.28125 C 77.640625 286.003906 79.023438 286.660156 80.441406 287.25 C 81.859375 287.835938 83.304688 288.355469 84.769531 288.800781 C 86.238281 289.246094 87.726562 289.621094 89.230469 289.921875 C 90.738281 290.222656 92.253906 290.449219 93.78125 290.601562 C 95.308594 290.753906 96.839844 290.828125 98.371094 290.832031 L 145.246094 290.832031 L 145.246094 284.269531 L 98.371094 284.269531 C 97.050781 284.269531 95.734375 284.203125 94.417969 284.074219 C 93.105469 283.945312 91.800781 283.75 90.503906 283.492188 C 89.207031 283.234375 87.929688 282.914062 86.664062 282.53125 C 85.398438 282.148438 84.15625 281.703125 82.9375 281.199219 C 81.714844 280.691406 80.523438 280.128906 79.359375 279.503906 C 78.195312 278.882812 77.0625 278.203125 75.964844 277.46875 C 74.863281 276.738281 73.804688 275.949219 72.785156 275.113281 C 71.761719 274.273438 70.785156 273.386719 69.851562 272.453125 C 68.917969 271.519531 68.03125 270.542969 67.191406 269.519531 C 66.355469 268.5 65.570312 267.441406 64.835938 266.339844 C 64.101562 265.242188 63.421875 264.113281 62.800781 262.945312 C 62.175781 261.78125 61.613281 260.589844 61.105469 259.367188 C 60.601562 258.148438 60.15625 256.90625 59.773438 255.640625 C 59.390625 254.375 59.070312 253.097656 58.8125 251.800781 C 58.554688 250.503906 58.359375 249.199219 58.230469 247.886719 C 58.101562 246.570312 58.035156 245.253906 58.035156 243.933594 C 58.035156 242.609375 58.101562 241.292969 58.230469 239.980469 C 58.359375 238.664062 58.554688 237.359375 58.8125 236.0625 C 59.070312 234.765625 59.390625 233.488281 59.773438 232.222656 C 60.15625 230.960938 60.601562 229.714844 61.105469 228.496094 C 61.613281 227.277344 62.175781 226.082031 62.800781 224.917969 C 63.421875 223.753906 64.101562 222.621094 64.835938 221.523438 C 65.570312 220.425781 66.355469 219.363281 67.191406 218.34375 C 68.03125 217.320312 68.917969 216.34375 69.851562 215.410156 C 70.785156 214.476562 71.761719 213.589844 72.785156 212.753906 C 73.804688 211.914062 74.863281 211.128906 75.964844 210.394531 C 77.0625 209.660156 78.195312 208.980469 79.359375 208.359375 C 80.523438 207.734375 81.714844 207.171875 82.9375 206.667969 C 84.15625 206.160156 85.398438 205.714844 86.664062 205.332031 C 87.929688 204.949219 89.207031 204.628906 90.503906 204.371094 C 91.800781 204.113281 93.105469 203.921875 94.417969 203.789062 C 95.734375 203.660156 97.050781 203.597656 98.371094 203.597656 L 145.246094 203.597656 L 145.246094 197.082031 L 98.371094 197.082031 C 96.839844 197.082031 95.308594 197.160156 93.78125 197.3125 C 92.253906 197.464844 90.738281 197.6875 89.230469 197.988281 C 87.726562 198.289062 86.238281 198.664062 84.769531 199.109375 C 83.304688 199.558594 81.859375 200.074219 80.441406 200.664062 C 79.023438 201.25 77.640625 201.90625 76.285156 202.628906 C 74.933594 203.355469 73.617188 204.144531 72.34375 204.996094 C 71.066406 205.847656 69.835938 206.761719 68.648438 207.738281 C 67.464844 208.710938 66.328125 209.738281 65.242188 210.824219 C 64.15625 211.910156 63.128906 213.046875 62.152344 214.230469 C 61.179688 215.417969 60.265625 216.648438 59.414062 217.925781 C 58.558594 219.203125 57.773438 220.515625 57.046875 221.867188 C 56.324219 223.222656 55.667969 224.609375 55.078125 226.023438 C 54.492188 227.441406 53.972656 228.886719 53.527344 230.355469 C 53.082031 231.824219 52.707031 233.308594 52.40625 234.8125 C 52.105469 236.320312 51.878906 237.835938 51.726562 239.363281 C 51.574219 240.890625 51.5 242.421875 51.496094 243.957031 Z M 51.496094 243.957031 " fill-opacity="1" fill-rule="nonzero"/></g><g clip-path="url(#dbeb70630e)"><path fill="#ffffff" d="M 209.359375 243.707031 C 209.359375 245.242188 209.4375 246.769531 209.589844 248.296875 C 209.742188 249.824219 209.964844 251.34375 210.265625 252.847656 C 210.566406 254.351562 210.941406 255.839844 211.386719 257.308594 C 211.835938 258.773438 212.351562 260.21875 212.941406 261.636719 C 213.527344 263.054688 214.183594 264.4375 214.910156 265.792969 C 215.632812 267.144531 216.421875 268.460938 217.273438 269.734375 C 218.125 271.011719 219.039062 272.242188 220.015625 273.429688 C 220.988281 274.613281 222.015625 275.75 223.101562 276.835938 C 224.1875 277.921875 225.324219 278.949219 226.511719 279.925781 C 227.695312 280.898438 228.925781 281.8125 230.203125 282.664062 C 231.480469 283.519531 232.792969 284.304688 234.148438 285.03125 C 235.5 285.753906 236.886719 286.410156 238.304688 287 C 239.71875 287.585938 241.164062 288.105469 242.632812 288.550781 C 244.101562 288.996094 245.585938 289.371094 247.09375 289.671875 C 248.597656 289.972656 250.113281 290.199219 251.640625 290.351562 C 253.167969 290.503906 254.699219 290.578125 256.234375 290.582031 L 303.109375 290.582031 L 303.109375 284.019531 L 256.234375 284.019531 C 254.910156 284.019531 253.59375 283.953125 252.28125 283.824219 C 250.964844 283.695312 249.660156 283.5 248.363281 283.242188 C 247.066406 282.984375 245.789062 282.664062 244.523438 282.28125 C 243.261719 281.898438 242.019531 281.453125 240.796875 280.949219 C 239.578125 280.441406 238.382812 279.878906 237.21875 279.253906 C 236.054688 278.632812 234.921875 277.953125 233.824219 277.21875 C 232.726562 276.488281 231.664062 275.699219 230.644531 274.863281 C 229.625 274.023438 228.644531 273.136719 227.710938 272.203125 C 226.777344 271.269531 225.890625 270.292969 225.054688 269.269531 C 224.214844 268.25 223.429688 267.191406 222.695312 266.089844 C 221.960938 264.992188 221.28125 263.863281 220.660156 262.695312 C 220.039062 261.53125 219.472656 260.339844 218.96875 259.117188 C 218.460938 257.898438 218.015625 256.65625 217.632812 255.390625 C 217.25 254.125 216.929688 252.847656 216.671875 251.550781 C 216.414062 250.253906 216.222656 248.949219 216.089844 247.636719 C 215.960938 246.320312 215.898438 245.003906 215.898438 243.683594 C 215.898438 242.359375 215.960938 241.042969 216.089844 239.730469 C 216.222656 238.414062 216.414062 237.109375 216.671875 235.8125 C 216.929688 234.515625 217.25 233.238281 217.632812 231.972656 C 218.015625 230.710938 218.460938 229.464844 218.96875 228.246094 C 219.472656 227.027344 220.039062 225.832031 220.660156 224.667969 C 221.28125 223.503906 221.960938 222.371094 222.695312 221.273438 C 223.429688 220.175781 224.214844 219.113281 225.054688 218.09375 C 225.890625 217.070312 226.777344 216.09375 227.710938 215.160156 C 228.644531 214.226562 229.625 213.339844 230.644531 212.503906 C 231.664062 211.664062 232.726562 210.878906 233.824219 210.144531 C 234.921875 209.410156 236.054688 208.730469 237.21875 208.109375 C 238.382812 207.488281 239.578125 206.921875 240.796875 206.417969 C 242.019531 205.910156 243.261719 205.464844 244.523438 205.082031 C 245.789062 204.699219 247.066406 204.378906 248.363281 204.121094 C 249.660156 203.863281 250.964844 203.671875 252.28125 203.539062 C 253.59375 203.410156 254.910156 203.347656 256.234375 203.347656 L 303.109375 203.347656 L 303.109375 196.832031 L 256.234375 196.832031 C 254.699219 196.832031 253.167969 196.910156 251.640625 197.0625 C 250.113281 197.214844 248.597656 197.4375 247.09375 197.738281 C 245.585938 198.039062 244.101562 198.414062 242.632812 198.859375 C 241.164062 199.308594 239.71875 199.824219 238.304688 200.414062 C 236.886719 201 235.5 201.65625 234.148438 202.378906 C 232.792969 203.105469 231.480469 203.894531 230.203125 204.746094 C 228.925781 205.597656 227.695312 206.511719 226.511719 207.488281 C 225.324219 208.460938 224.1875 209.488281 223.101562 210.574219 C 222.015625 211.660156 220.988281 212.796875 220.015625 213.980469 C 219.039062 215.167969 218.125 216.398438 217.273438 217.675781 C 216.421875 218.953125 215.632812 220.265625 214.910156 221.617188 C 214.183594 222.972656 213.527344 224.359375 212.941406 225.773438 C 212.351562 227.191406 211.835938 228.636719 211.386719 230.105469 C 210.941406 231.574219 210.566406 233.058594 210.265625 234.5625 C 209.964844 236.070312 209.742188 237.585938 209.589844 239.113281 C 209.4375 240.640625 209.359375 242.171875 209.359375 243.707031 Z M 209.359375 243.707031 " fill-opacity="1" fill-rule="nonzero"/></g></svg>